<svg id="ColumnsLogo" xmlns="http://www.w3.org/2000/svg" viewBox="0 0 306.04 89"><defs><style>.cls-1{fill:#4b2e83;}</style></defs><title>artboard2</title><g id="columns-logo"><path class="cls-1" d="M269.52,52.41c3.43,6.45,9.69,10.6,18.25,10.6,9.61,0,16.76-4.67,16.76-13.93,0-8.52-5.07-12-12.74-15.41l-3.5-1.56c-5.51-2.45-8-4-8-8,0-3.48,2.38-5.85,6.48-5.85,3.8,0,6.33,1.63,8.27,4.89l6-3.93c-3.2-5.33-8-7.93-14.45-7.93-8.35,0-14.08,5.41-14.08,13.12s5.07,11.71,12.52,15l3.5,1.56c4.47,2,8,3.63,8,8.37,0,4.07-3.58,6.59-8.94,6.59a12.18,12.18,0,0,1-11.47-6.82Zm-2.08,10.67H268V12h-7.45V45.12L228.12,11.21h-0.6V62.34H235V29.22ZM174,62.34h7.51V29.66l17.21,20.53h0.37l17.29-20.53V62.34h7.52V10.92h-0.37L199.14,39.3,174.4,10.92H174V62.34h0ZM151.44,63c11,0,19.3-6.15,19.3-18.45V12h-8V44.16c0,8.08-4,11.71-11.32,11.71S140,52.24,140,44.16V12h-8V44.6c0,12.3,8.35,18.45,19.37,18.45m-50-.67h30.32v-7H109.43V12h-8V62.39h0ZM73,55.86c-10.51,0-17.88-8-17.88-18.67s7.4-18.71,18-18.71S91,26.48,91,37.15,83.58,55.82,73.08,55.82m0,7.19c14.53,0,26.15-11,26.15-25.86S87.61,11.29,73.08,11.29s-26.15,11-26.15,25.86S58.52,63,73.08,63m-46,0c9.83,0,16.47-3.41,21.68-10.3l-6.18-4.22a18,18,0,0,1-15.2,7.34C17.17,55.82,9.72,48,9.72,37.15c0-10.67,7.3-18.67,17.36-18.67,6.71,0,11,2.37,14.38,6.89l6.11-4.3c-4.4-6.15-10.88-9.78-20.26-9.78A25.37,25.37,0,0,0,1.52,36.23q0,0.46,0,.92C1.52,52,12.65,63,27.11,63"/></g></svg>