<?xml version="1.0" encoding="utf-8"?>
<!-- Generator: Adobe Illustrator 19.2.1, SVG Export Plug-In . SVG Version: 6.00 Build 0)  -->
<!DOCTYPE svg PUBLIC "-//W3C//DTD SVG 1.1//EN" "http://www.w3.org/Graphics/SVG/1.1/DTD/svg11.dtd">
<svg version="1.1" xmlns="http://www.w3.org/2000/svg" xmlns:xlink="http://www.w3.org/1999/xlink" x="0px" y="0px"
	 viewBox="0 0 316 246" style="enable-background:new 0 0 316 246;" width="474px" height="369px" xml:space="preserve">
<style type="text/css">
	.st0{fill:none;}
	.st1{fill:#4C3184;}
	.st2{fill:#FFFFFF;}
	.st3{fill:#9A9A99;}
	.st4{fill:#5B5C5E;}
</style>
<g id="Layer_14">
	<g id="columns-logo">
		<path class="st0" d="M276,229.4c3.4,6.4,9.7,10.6,18.3,10.6c9.6,0,16.8-4.7,16.8-13.9c0-8.5-5.1-12-12.7-15.4l-3.5-1.6
			c-5.5-2.4-8-4-8-8c0-3.5,2.4-5.9,6.5-5.9c3.8,0,6.3,1.6,8.3,4.9l6-3.9c-3.2-5.3-8-7.9-14.5-7.9c-8.3,0-14.1,5.4-14.1,13.1
			c0,7.9,5.1,11.7,12.5,15l3.5,1.6c4.5,2,8,3.6,8,8.4c0,4.1-3.6,6.6-8.9,6.6c-5.2,0-9.2-2.4-11.5-6.8L276,229.4z M273.9,240.1h0.6
			V189h-7.5v33.1l-32.5-33.9H234v51.1h7.5v-33.1L273.9,240.1z M180.5,239.3h7.5v-32.7l17.2,20.5h0.4l17.3-20.5v32.7h7.5v-51.4h-0.4
			l-24.4,28.4l-24.7-28.4h-0.4V239.3z M157.9,240c11,0,19.3-6.2,19.3-18.5V189h-8v32.2c0,8.1-4,11.7-11.3,11.7
			c-7.4,0-11.4-3.6-11.4-11.7V189h-8v32.6C138.6,233.9,146.9,240,157.9,240 M107.9,239.3h30.3v-7h-22.4V189h-8V239.3z M79.6,232.8
			c-10.5,0-17.9-8-17.9-18.7c0-10.7,7.4-18.7,17.9-18.7c10.5,0,17.9,8,17.9,18.7C97.4,224.8,90.1,232.8,79.6,232.8 M79.6,240
			c14.5,0,26.2-11,26.2-25.9s-11.6-25.9-26.2-25.9s-26.2,11-26.2,25.9S65,240,79.6,240 M33.6,240c9.8,0,16.5-3.4,21.7-10.3l-6.2-4.2
			c-3.8,4.9-8.6,7.3-15.2,7.3c-10.2,0-17.7-7.8-17.7-18.7c0-10.7,7.3-18.7,17.4-18.7c6.7,0,11,2.4,14.4,6.9l6.1-4.3
			c-4.4-6.2-10.9-9.8-20.3-9.8c-14.5,0-25.9,11-25.9,25.9S19.1,240,33.6,240"/>
	</g>
</g>
<g id="Layer_10">
	<path id="twitter_3_" class="st1" d="M52,138.4h25.5v-25.5H52V138.4L52,138.4z M58.1,127.2c0.2,0,0.4,0.1,0.7,0.1
		c0.3,0,0.6,0,0.9-0.1c-1.6-0.3-2.8-1.7-2.8-3.4v0c0.5,0.3,1,0.4,1.6,0.4c-0.9-0.6-1.6-1.7-1.6-2.9c0-0.6,0.2-1.2,0.5-1.8
		c1.7,2.1,4.3,3.5,7.2,3.6c-0.1-0.3-0.1-0.5-0.1-0.8c0-1.9,1.6-3.5,3.5-3.5c1,0,1.9,0.4,2.5,1.1c0.8-0.2,1.5-0.4,2.2-0.8
		c-0.3,0.8-0.8,1.5-1.5,1.9c0.7-0.1,1.4-0.3,2-0.5c-0.5,0.7-1.1,1.3-1.7,1.8c0,0.2,0,0.3,0,0.5c0,4.6-3.5,9.9-9.9,9.9
		c-2,0-3.8-0.6-5.4-1.6c0.3,0,0.6,0,0.8,0c1.6,0,3.1-0.6,4.3-1.5C59.8,129.5,58.6,128.5,58.1,127.2L58.1,127.2z"/>
	<path id="fb_3_" class="st1" d="M7,138.3h25.4v-25.4H7V138.3z M18.4,124.2h3.4v-2.9c0-3.3,2-5.1,5-5.1c1.4,0,2.6,0.1,3,0.2v3.5
		h-2.1c-1.6,0-1.9,0.8-1.9,1.9v2.5h3.9l-0.5,3.9h-3.3v10h-4v-10h-3.4V124.2L18.4,124.2z"/>
	<g>
		<rect x="98" y="112.9" class="st1" width="25.5" height="25.5"/>
		<path class="st2" d="M103.8,124.3h3.6v11.6h-3.6V124.3z M105.6,118.5c1.2,0,2.1,0.9,2.1,2.1c0,1.2-0.9,2.1-2.1,2.1
			c-1.2,0-2.1-0.9-2.1-2.1C103.5,119.4,104.4,118.5,105.6,118.5"/>
		<path class="st2" d="M109.7,124.3h3.4v1.6h0c0.5-0.9,1.7-1.9,3.4-1.9c3.6,0,4.3,2.4,4.3,5.5v6.3h-3.6v-5.6c0-1.3,0-3.1-1.9-3.1
			c-1.9,0-2.2,1.5-2.2,3v5.7h-3.6V124.3L109.7,124.3z"/>
	</g>
	<path class="st1" d="M145.9,116.9c0,0-0.1-0.1-0.1-0.1c0,0,0,0,0,0 M167,116.8V134h-8.9l-6.9,3.9l0-3.9l-5.2-0.1l0-17L167,116.8
		 M142,112.9L142,112.9L142,112.9v25h5.5l0,6.3l11.3-6.3H171v-25L142,112.9z"/>
</g>
<g id="Layer_8">
	<path class="st3" d="M145.9,82.9c0,0-0.1-0.1-0.1-0.1c0,0,0,0,0,0 M167,82.8V100h-8.9l-6.9,3.9l0-3.9l-5.2-0.1l0-17L167,82.8
		 M142,78.9L142,78.9L142,78.9v25h5.5l0,6.3l11.3-6.3H171v-25L142,78.9z"/>
	<g>
		<rect x="98" y="78.9" class="st3" width="25.5" height="25.5"/>
		<path class="st2" d="M103.8,90.3h3.6v11.6h-3.6V90.3z M105.6,84.5c1.2,0,2.1,0.9,2.1,2.1c0,1.2-0.9,2.1-2.1,2.1
			c-1.2,0-2.1-0.9-2.1-2.1C103.5,85.4,104.4,84.5,105.6,84.5"/>
		<path class="st2" d="M109.7,90.3h3.4v1.6h0c0.5-0.9,1.7-1.9,3.4-1.9c3.6,0,4.3,2.4,4.3,5.5v6.3h-3.6v-5.6c0-1.3,0-3.1-1.9-3.1
			c-1.9,0-2.2,1.5-2.2,3v5.7h-3.6V90.3L109.7,90.3z"/>
	</g>
	<path id="twitter_1_" class="st3" d="M52,104.4h25.5V78.9H52V104.4L52,104.4z M58.1,93.2c0.2,0,0.4,0.1,0.7,0.1
		c0.3,0,0.6,0,0.9-0.1c-1.6-0.3-2.8-1.7-2.8-3.4v0c0.5,0.3,1,0.4,1.6,0.4c-0.9-0.6-1.6-1.7-1.6-2.9c0-0.6,0.2-1.2,0.5-1.8
		c1.7,2.1,4.3,3.5,7.2,3.6c-0.1-0.3-0.1-0.5-0.1-0.8c0-1.9,1.6-3.5,3.5-3.5c1,0,1.9,0.4,2.5,1.1c0.8-0.2,1.5-0.4,2.2-0.8
		c-0.3,0.8-0.8,1.5-1.5,1.9c0.7-0.1,1.4-0.3,2-0.5c-0.5,0.7-1.1,1.3-1.7,1.8c0,0.2,0,0.3,0,0.5c0,4.6-3.5,9.9-9.9,9.9
		c-2,0-3.8-0.6-5.4-1.6c0.3,0,0.6,0,0.8,0c1.6,0,3.1-0.6,4.3-1.5C59.8,95.5,58.6,94.5,58.1,93.2L58.1,93.2z"/>
	<path id="fb_1_" class="st3" d="M7,104.3h25.4V78.9H7V104.3z M18.4,90.2h3.4v-2.9c0-3.3,2-5.1,5-5.1c1.4,0,2.6,0.1,3,0.2v3.5h-2.1
		c-1.6,0-1.9,0.8-1.9,1.9v2.5h3.9l-0.5,3.9h-3.3v10h-4v-10h-3.4V90.2L18.4,90.2z"/>
</g>
<g id="Layer_7">
	<g id="close-outline-circle-x">
		<path class="st0" d="M260.9,61.4h-1.8l-3.7-6.1l-3.8,6.1h-1.7l4.6-7.3l-4.3-6.6h1.8l3.5,5.5l3.5-5.5h1.7l-4.3,6.6L260.9,61.4z"/>
		<circle class="st0" cx="255" cy="54" r="14"/>
	</g>
</g>
<g id="Layer_6_1_">
	<g id="close-white-circle-x">
		<path class="st2" d="M199.6,77.3c13.1,0,23.7-10.6,23.7-23.6c0-13.1-10.6-23.6-23.7-23.6C186.6,30,176,40.6,176,53.6
			C176,66.7,186.6,77.3,199.6,77.3"/>
		<polygon class="st0" points="201.5,53.9 208.8,42.7 205.9,42.7 200,52 194.2,42.7 191.1,42.7 198.4,54 190.6,66.3 193.5,66.3 
			200,55.9 206.3,66.3 209.4,66.3 		"/>
	</g>
</g>
<g id="Layer_5_1_">
	<g id="search">
		<path class="st0" d="M124.8,52.6c0,3.3,2.7,6.1,6.1,6.1c3.3,0,6.1-2.7,6.1-6.1c0-3.3-2.7-6.1-6.1-6.1
			C127.5,46.5,124.8,49.2,124.8,52.6L124.8,52.6z M123,52.6c0-4.3,3.5-7.8,7.8-7.8c4.3,0,7.8,3.5,7.8,7.8c0,4.3-3.5,7.8-7.8,7.8
			C126.5,60.4,123,56.9,123,52.6"/>
		<rect x="108" y="32" class="st0" width="43.7" height="43.7"/>
		
			<rect x="118.9" y="59.5" transform="matrix(0.7076 -0.7066 0.7066 0.7076 -6.7789 104.4962)" class="st0" width="7.9" height="2"/>
		<circle class="st0" cx="129.9" cy="53.9" r="20.8"/>
		<rect x="108" y="32" class="st0" width="43.7" height="43.7"/>
	</g>
</g>
<g id="Layer_4_1_">
	<g id="prev-next-arrow">
		
			<rect x="65.9" y="44.4" transform="matrix(0.707 -0.7072 0.7072 0.707 -16.0353 62.7715)" class="st0" width="3.6" height="12.6"/>
		
			<rect x="61.5" y="55.3" transform="matrix(0.707 -0.7072 0.7072 0.707 -20.5345 64.6836)" class="st0" width="12.6" height="3.6"/>
	</g>
</g>
<g id="Layer_3_1_">
	<g id="prev-next-circle">
		<path class="st0" d="M10.6,64.6c-6.1-6.1-6.1-16,0-22c6.1-6.1,16-6.1,22,0c6.1,6.1,6.1,16,0,22C26.5,70.7,16.6,70.7,10.6,64.6
			L10.6,64.6z M30.6,44.6c-5-5-13.1-5-18,0c-5,5-5,13.1,0,18c5,5,13.1,5,18,0C35.6,57.6,35.6,49.5,30.6,44.6L30.6,44.6z"/>
		<g>
			
				<rect x="21.5" y="46.2" transform="matrix(0.707 -0.7072 0.7072 0.707 -29.4392 31.1944)" class="st0" width="2.8" height="9.9"/>
			
				<rect x="18" y="54.7" transform="matrix(0.7067 -0.7075 0.7075 0.7067 -33.0102 32.6857)" class="st0" width="9.9" height="2.8"/>
		</g>
	</g>
</g>
<g id="Layer_2_1_">
	<g id="menu-arrow">
		<polygon class="st0" points="52.8,6.7 52.1,6 48.4,9.6 44.7,6 44,6.7 48.4,11 48.4,11 48.4,11 		"/>
	</g>
</g>
<g id="Layer_1">
	<g id="home">
		<polygon class="st4" points="11.4,17.4 11.4,13.2 15.5,13.2 15.5,17.4 19.8,17.4 19.8,12 13.5,6.3 7.3,12.1 7.3,17.4 		"/>
		<polygon class="st4" points="20.6,11.4 13.5,4.9 6.4,11.4 5,9.8 13.5,2 22,9.8 		"/>
	</g>
</g>
</svg>
