<svg id="iconSprite" data-name="iconSprite" xmlns="http://www.w3.org/2000/svg" viewBox="0 0 306.04 238.08" x="0px" y="0px"
   width="306.04px" height="238.08px" enable-background="new 0 0 863.5 238.08">
<path id="email-h" d="M110.24,153.93L95,145.43v17h30.57v-17ZM95,136.93v4.25l15.28,8.51,15.28-8.51v-4.25H95Z" style="fill:#b8a67b"/><path id="email" d="M110.24,114.93L95,106.43v17h30.57v-17ZM95,97.92v4.25l15.28,8.51,15.28-8.51V97.92H95Z" style="fill:#4c3184"/>
<g id="twitter-h"><rect x="46.96" y="136.92" width="25.52" height="25.52" style="fill:#33a7dc"/><path d="M68.23,144.41a7,7,0,0,1-2,.55,3.49,3.49,0,0,0,1.53-2,7,7,0,0,1-2.22.85,3.49,3.49,0,0,0-6,2.39,3.54,3.54,0,0,0,.09.79,9.91,9.91,0,0,1-7.19-3.65A3.5,3.5,0,0,0,53.52,148a3.47,3.47,0,0,1-1.58-.44h0a3.49,3.49,0,0,0,2.8,3.42,3.49,3.49,0,0,1-1.58.06,3.49,3.49,0,0,0,3.26,2.42,7,7,0,0,1-4.34,1.5,7.1,7.1,0,0,1-.83-0.05,9.93,9.93,0,0,0,15.28-8.36v-0.45a7.31,7.31,0,0,0,1.74-1.81h0Z" style="fill:#fff"/></g>
<path id="twitter" d="M47,123.44H72.48V97.92H47v25.52h0Zm6.16-11.29a3.39,3.39,0,0,0,.66.06,3.49,3.49,0,0,0,.92-0.12,3.49,3.49,0,0,1-2.8-3.42h0a3.49,3.49,0,0,0,1.58.44,3.5,3.5,0,0,1-1.08-4.66A9.9,9.9,0,0,0,59.59,108a3.49,3.49,0,0,1,5.95-3.18,7,7,0,0,0,2.22-.85,3.49,3.49,0,0,1-1.54,1.93,6.92,6.92,0,0,0,2-.55,7.11,7.11,0,0,1-1.74,1.81v0.45A9.93,9.93,0,0,1,51.21,116a7.2,7.2,0,0,0,.83,0,7,7,0,0,0,4.34-1.49,3.52,3.52,0,0,1-3.26-2.44h0Z" style="fill:#4c3184"/>
<g id="fb-h"><rect x="1.96" y="136.92" width="25.4" height="25.4" style="fill:#3c5a9a"/><path d="M24.11,152.13l0.5-3.89H20.76v-2.48c0-1.12.31-1.89,1.93-1.89h2.06v-3.48a27.64,27.64,0,0,0-3-.15c-3,0-5,1.81-5,5.14v2.87H13.39v3.89h3.36v10h4v-10h3.36Z" style="fill:#fff"/></g><path id="fb" d="M2,123.32H27.4V97.92H2v25.4Zm11.43-14.09h3.36v-2.87c0-3.33,2-5.14,5-5.14a27.69,27.69,0,0,1,3,.15v3.48h-2.1c-1.61,0-1.93.77-1.93,1.89v2.48h3.85l-0.5,3.89H20.76v10h-4v-10H13.39v-3.88h0Z" style="fill:#4c3184"/>
<g id="close-outline-circle-x"><path d="M255.93,59.42H254.1l-3.74-6.12-3.81,6.12h-1.71l4.62-7.27-4.31-6.64h1.79L250.4,51l3.48-5.51h1.72l-4.31,6.58Z" style="fill:none"/><circle cx="249.96" cy="51.96" r="13.96" style="fill:none"/></g>
<g id="close-white-circle-x"><path d="M194.65,75.3A23.65,23.65,0,1,0,171,51.65h0A23.65,23.65,0,0,0,194.65,75.3" style="fill:#fff"/><polygon points="196.53 51.87 203.83 40.72 200.91 40.72 195.02 50.05 189.17 40.72 186.14 40.72 193.44 51.96 185.61 64.27 188.51 64.27 194.95 53.91 201.28 64.27 204.39 64.27 196.53 51.87" style="fill:none"/></g>

<g id="icon-search">
    <path class="glass" d="M119.78,50.59a6.07,6.07,0,1,0,6.08-6.07,6.07,6.07,0,0,0-6.08,6.07h0Zm-1.76,0a7.83,7.83,0,1,1,7.83,7.83h0A7.84,7.84,0,0,1,118,50.59h0" style="fill:#FFFFFF;"/>    
    <rect class="handle" x="113.94" y="57.46" width="7.86" height="1.97" transform="translate(-6.83 100.38) rotate(-44.96)" style="fill:#FFFFFF;"/>
    <circle class="outer-circle" cx="124.87" cy="51.86" r="20.78" style="fill:none;"/>
    <rect x="103" y="30" width="43.73" height="43.73" style="fill:none;" />
</g>


<g id="prev-next-arrow"><rect x="60.92" y="42.44" width="3.63" height="12.6" transform="translate(-16.09 58.65) rotate(-45.01)" style="fill:none"/><rect x="56.5" y="53.3" width="12.61" height="3.62" transform="translate(-20.57 60.56) rotate(-45.01)" style="fill:none"/></g>
<g id="prev-next-circle"><path d="M5.56,62.59a15.58,15.58,0,1,1,22,0l0,0a15.6,15.6,0,0,1-22,0h0Zm20-20a12.75,12.75,0,1,0,0,18l0,0a12.76,12.76,0,0,0,0-18h0Z" style="fill:none"/><rect x="16.51" y="44.19" width="2.84" height="9.85" transform="translate(-29.48 27.07) rotate(-45.01)" style="fill:none"/><rect x="12.99" y="52.74" width="9.86" height="2.83" transform="translate(-33.06 28.57) rotate(-45.04)" style="fill:none"/></g>
<g id="menu-arrow"><polygon points="47.81 4.71 47.11 4 43.41 7.62 39.7 4 39 4.71 43.4 9.03 43.41 9.02 43.41 9.03 47.81 4.71" style="fill:none"/></g>
<g id="home"><polygon points="6.39 15.42 6.39 11.2 10.51 11.2 10.51 15.42 14.76 15.42 14.76 10.02 8.55 4.31 2.28 10.06 2.28 15.42 6.39 15.42" style="fill:#5b5c5e"/><polygon points="15.59 9.37 8.52 2.9 1.44 9.37 0 7.79 8.52 0 17.04 7.79 15.59 9.37" style="fill:#5b5c5e"/></g>
<g id="columns-logo"><path d="M271,227.41c3.43,6.45,9.69,10.6,18.25,10.6,9.61,0,16.76-4.67,16.76-13.93,0-8.52-5.07-12-12.74-15.41l-3.5-1.56c-5.51-2.45-8-4-8-8,0-3.48,2.38-5.85,6.48-5.85,3.8,0,6.33,1.63,8.27,4.89l6-3.93c-3.2-5.33-8-7.93-14.45-7.93-8.35,0-14.08,5.41-14.08,13.12s5.07,11.71,12.52,15L290,216c4.47,2,8,3.63,8,8.37,0,4.07-3.58,6.59-8.94,6.59a12.18,12.18,0,0,1-11.47-6.82Zm-2.08,10.67h0.6V187h-7.45v33.12L229.6,186.21H229v51.13h7.45V204.22Zm-93.43-.74H183V204.66l17.21,20.53h0.37l17.29-20.53v32.68h7.52V185.92H225l-24.4,28.38-24.74-28.38h-0.37v51.42h0Zm-22.57.67c11,0,19.3-6.15,19.3-18.45V187h-8v32.16c0,8.08-4,11.71-11.32,11.71s-11.4-3.63-11.4-11.71V187h-8v32.6c0,12.3,8.35,18.45,19.37,18.45m-50-.67h30.32v-7H110.91V187h-8v50.39h0Zm-28.39-6.52c-10.51,0-17.88-8-17.88-18.67s7.4-18.71,18-18.71,17.88,8,17.88,18.67-7.38,18.67-17.88,18.67m0,7.19c14.53,0,26.15-11,26.15-25.86s-11.62-25.86-26.15-25.86-26.15,11-26.15,25.86S60,238,74.56,238m-46,0c9.83,0,16.47-3.41,21.68-10.3l-6.18-4.22a18,18,0,0,1-15.2,7.34c-10.21,0-17.66-7.78-17.66-18.67,0-10.67,7.3-18.67,17.36-18.67,6.71,0,11,2.37,14.38,6.89l6.11-4.3c-4.4-6.15-10.88-9.78-20.26-9.78A25.37,25.37,0,0,0,3,211.23q0,0.46,0,.92C3,227,14.13,238,28.59,238" style="fill:none"/></g>


</svg>