<svg id="Layer_1" data-name="Layer 1" xmlns="http://www.w3.org/2000/svg" xmlns:xlink="http://www.w3.org/1999/xlink" viewBox="0 0 723.33 658.33">
    <defs>
        <style>.cls-1,.cls-25,.cls-28,.cls-29,.cls-35,.cls-37{fill:none;}.cls-2{fill:#4c2f83;}.cls-3{fill:#d1d3d4;}.cls-4{fill:#fff;}.cls-5{fill:#d2d3d4;}.cls-6{fill:#919396;}.cls-7{fill:#fed800;}.cls-8{fill:#231f20;}.cls-9{fill:#5a5b5d;}.cls-10{fill:#cd332d;}.cls-11{fill:#cc3732;}.cls-12{fill:#00b386;}.cls-13{fill:#32669a;}.cls-14{fill:#ca2128;}.cls-15{fill:#3b5999;}.cls-16{fill:#017bb6;}.cls-17{fill:#2aa8e0;}.cls-18{fill:#4b2e84;}.cls-19{fill:#32506d;}.cls-20{fill:#bcbec0;}.cls-21{fill:#b7a57a;}.cls-22{fill:#666;}.cls-23{fill:#616264;}.cls-24{fill:#8c8c8c;}.cls-25{stroke:#e6e7e8;stroke-width:0.5px;}.cls-25,.cls-28,.cls-29{stroke-miterlimit:10;}.cls-26{fill:#85754d;}.cls-27{fill:#746041;}.cls-28{stroke:#c7c7c7;}.cls-28,.cls-29{stroke-width:3.75px;}.cls-29{stroke:#4b2e83;}.cls-30{fill:#4b2e83;}.cls-31{fill:#c7c7c7;}.cls-32{clip-path:url(#clip-path);}.cls-33{fill:#999;}.cls-34{clip-path:url(#clip-path-2);}.cls-35,.cls-37{stroke:#999;}.cls-35{stroke-width:2.18px;}.cls-36{fill:#ccc;}</style>
        <clipPath id="clip-path" transform="translate(0 0)"><rect class="cls-1" x="103" y="612.27" width="43.73" height="43.73"/>
    </clipPath>

    <clipPath id="clip-path-2" transform="translate(0 0)"><rect class="cls-1" x="103" y="611.27" width="43.73" height="43.73"/></clipPath>
</defs>
<title>uwaa-sprite</title>
<polygon class="cls-2" points="363.12 2.72 362.42 2 358.72 5.62 355.01 2 354.31 2.72 358.71 7.03 358.72 7.02 358.72 7.03 363.12 2.72"/>
<polygon class="cls-2" points="356.92 54.77 356.2 55.47 359.82 59.17 356.2 62.88 356.92 63.58 361.23 59.18 361.22 59.17 361.23 59.17 356.92 54.77"/>
<polygon points="363.12 21.83 362.42 21.11 358.72 24.73 355.01 21.11 354.31 21.83 358.71 26.14 358.72 26.13 358.72 26.14 363.12 21.83"/>
<polygon class="cls-3" points="363.12 38.41 362.42 37.7 358.72 41.32 355.01 37.7 354.31 38.41 358.71 42.72 358.72 42.72 358.72 42.72 363.12 38.41"/><path class="cls-4" d="M317.19,448.88V436.8l8.38,13.47h0.82V435.55l1.4-1.39h-4.21l1.4,1.39V445.8l-7.27-11.64h-3.34l1.37,1.39v13.34l-1.37,1.4h4.21l-1.39-1.4h0Zm-12.45.51c-3.23,0-4.34-3.85-4.34-7.19s1.12-7.19,4.34-7.19,4.37,3.85,4.37,7.19-1.12,7.19-4.37,7.19m-6.45-7.18c0,4.1,2.32,8.41,6.44,8.41s6.48-4.31,6.48-8.41-2.31-8.41-6.48-8.41-6.45,4.31-6.45,8.41M291,449V435.35h3.06l1.72,1.73v-2.92H284.45v2.92l1.75-1.72h3V449L288,450.27h4.32L291,449h0Zm-11.94-6v5.19a3.45,3.45,0,0,1-2.65,1.15c-3.58,0-5.38-3.6-5.38-7.07s2.27-7.07,5.38-7.07a2.46,2.46,0,0,1,2,.77l1.78,1.74v-2.79a7.25,7.25,0,0,0-3.74-.93c-4.4,0-7.49,3.94-7.49,8.28s3.09,8.28,7.49,8.28a7,7,0,0,0,4.42-1.19v-6.35l1.26-1.28h-4.32l1.27,1.27v0Zm-23.9,5.94V436.8l8.48,13.48h0.73V435.55l1.39-1.39h-4.21l1.39,1.39v10.25l-7.27-11.64h-3.33l1.37,1.39v13.34l-1.37,1.4h4.21l-1.4-1.4h0Zm-11.55-14.73,1.28,1.28V449l-1.28,1.28H248L246.67,449V435.43l1.28-1.28h-4.34Zm-14.32,8h6.78V449l-1.28,1.28h4.34L237.85,449V435.44l1.28-1.28h-4.34l1.28,1.28V441H229.3v-5.54l1.29-1.28h-4.32l1.26,1.28V449l-1.26,1.28h4.32L229.3,449v-6.81h0ZM222,445.79a3.58,3.58,0,0,0-1.5-3.09l-3.28-2.38a3.79,3.79,0,0,1-1.78-2.76,2.28,2.28,0,0,1,2.32-2.29,9.46,9.46,0,0,1,1,.19l1.42,1.53,1.5-2.24-3.2-.6a2.62,2.62,0,0,0-.76-0.08,4.06,4.06,0,0,0-4.1,4,4.64,4.64,0,0,0,2.07,3.68l3.31,2.38a2.74,2.74,0,0,1,1.15,2.35,2.67,2.67,0,0,1-2.67,2.85,2.59,2.59,0,0,1-1.12-.23l-1.53-1.8-1.39,2.51,3.09,0.6a5.76,5.76,0,0,0,1,.1,4.58,4.58,0,0,0,4.47-4.67m-18-8.06,2.21,6.67h-4.51l2.3-6.67h0ZM200.1,449l1.17-3.41h5.33l1.12,3.41-1.26,1.26H211L209.74,449l-5-14.8H203.9L198.79,449l-1.31,1.31h3.88L200.12,449h0ZM183,450.29l3.69-11.66,3.58,11.66H191l4.67-14.83,1.31-1.28h-3.88l1.26,1.26L191,446.58l-3.31-11.15,1.26-1.26h-4.56l1.29,1.28,0.33,1.06-3.09,10.06-3.3-11.15,1.26-1.26h-4.56l1.31,1.28,4.54,14.83H183Zm-23.88-9.66-0.61.59,0.07,0.23h1.88c-0.3,2-.56,3.81-1,6.68-0.61,4.24-1.13,5.74-1.56,6.1a0.83,0.83,0,0,1-.56.2,3,3,0,0,1-1-.34,0.53,0.53,0,0,0-.63.16,1.39,1.39,0,0,0-.38.77,0.91,0.91,0,0,0,1,.68,3.8,3.8,0,0,0,2.5-1.56c0.77-.95,1.81-3.16,2.7-8.29,0.16-1,.34-1.9.73-4.4l2.31-.23,0.5-.59H162.3c0.68-4.2,1.25-5.47,2.22-5.47a2.45,2.45,0,0,1,1.75.75,0.46,0.46,0,0,0,.63,0,1.33,1.33,0,0,0,.45-0.84,1.25,1.25,0,0,0-1.37-1,5,5,0,0,0-3.65,1.9,10.3,10.3,0,0,0-1.79,4.64h-1.47Zm-10.21,6c0-3.36,1.7-5.18,2.41-5.47a2,2,0,0,1,.75-0.18c1.14,0,1.79.85,1.79,2.6,0,3-1.5,5.63-2.45,5.95a2.45,2.45,0,0,1-.7.16c-1.28,0-1.8-1.35-1.8-3.06m3.88-6.49a5.42,5.42,0,0,0-2.45.81,7.11,7.11,0,0,0-3.27,6.22c0,1.59.75,3.36,2.86,3.36a5.83,5.83,0,0,0,3.38-1.52,8.12,8.12,0,0,0,2.38-5.72c0-1.88-1-3.15-2.9-3.15m-26.3-4.62,4.07,7.35V449l-1.28,1.28h4.34L132.3,449v-6.2l4.15-7.32,1.34-1.31h-4l1.26,1.26-3.39,6-3.23-6,1.26-1.26h-4.56l1.31,1.28h0ZM118,449V435.38H121l1.72,1.73v-2.92H111.4v2.92l1.75-1.72h3V449l-1.26,1.28h4.31L118,449h0Zm-14.62-14.84,1.28,1.28V449l-1.28,1.28h4.35L106.4,449V435.46l1.28-1.28h-4.35Zm-4.67,11.64a3.59,3.59,0,0,0-1.5-3.09l-3.28-2.38a3.79,3.79,0,0,1-1.77-2.76,2.28,2.28,0,0,1,2.32-2.29,9.4,9.4,0,0,1,1,.19L96.89,437l1.5-2.24-3.19-.6a2.56,2.56,0,0,0-.76-0.08,4.06,4.06,0,0,0-4.1,4,4.66,4.66,0,0,0,2.08,3.69l3.3,2.38a2.74,2.74,0,0,1,1.15,2.35,2.67,2.67,0,0,1-2.68,2.86,2.6,2.6,0,0,1-1.12-.23l-1.53-1.8-1.39,2.52,3.09,0.6a5.81,5.81,0,0,0,1,.1,4.61,4.61,0,0,0,4.48-4.69M78,435.39h2A3.17,3.17,0,0,1,83,438.61a3,3,0,0,1-3.09,3H78v-6.21h0ZM78,449V442.8h2.43l3.9,7.51H87L85.72,449l-3.6-6.61a4.23,4.23,0,0,0,3-3.77c0-2.73-2.54-4.45-5.22-4.45h-5l1.26,1.28V449l-1.26,1.27h4.31L78,449h0Zm-7.24,1.27v-2.95L69,449.09H64.11v-6.77h3.63L69,443.6v-3.76l-1.29,1.28H64.11v-5.74H69l1.72,1.73v-2.92H61.08l1.26,1.28V449l-1.26,1.27h9.64Zm-20.9-16.11H45.26l1.31,1.28L51.1,450.3h0.82l4.67-14.83,1.31-1.28H54l1.26,1.26-3.42,11.14-3.3-11.14,1.25-1.25h0Zm-12.51,0,1.29,1.28V449l-1.29,1.28h4.34L40.37,449V435.47l1.28-1.28H37.31Zm-15,14.73V436.84L31,450.31h0.56V435.58l1.39-1.39H28.71l1.39,1.39v10.25l-7.27-11.63H19.5l1.37,1.39v13.34l-1.37,1.4h4.21l-1.39-1.4h0ZM4.17,446a4.8,4.8,0,0,0,5,4.67c2.62,0,5.22-1.94,5.22-4.67V435.58l1.37-1.39H11.55l1.39,1.39V446a3.31,3.31,0,0,1-3.33,3.33A3.47,3.47,0,0,1,6.06,446V435.58l1.4-1.39H2.78l1.39,1.39V446h0Z" transform="translate(0 0)"/><path class="cls-4" d="M88.27,9.12V23.71H98.52L87.08,66.31,72.87,9.12H58.06L42.68,66.31,32.15,23.71H42.82V9.12H0V23.71H9.49S25.86,89.21,26.06,90H49L60,48.29C66.85,75.59,66.51,73.87,70.44,90h23c0.2-.78,17.43-66.3,17.43-66.3h9.41V9.12h-32Z" transform="translate(0 0)"/>
<polygon class="cls-5" points="591.55 5.06 583.17 22.69 584.28 22.69 592.66 5.06 591.55 5.06"/>
<polygon class="cls-6" points="619.76 3.58 607.65 35.95 608.18 35.95 620.29 3.58 619.76 3.58"/>
<polygon class="cls-4" points="667.91 0 631.27 111.06 632.36 111.06 669 0 667.91 0"/><path class="cls-4" d="M543.09,13.4a13.39,13.39,0,1,1,13.39,13.4A13.41,13.41,0,0,1,543.09,13.4Zm3,0A10.39,10.39,0,1,0,556.5,3,10.4,10.4,0,0,0,546.1,13.4h0Z" transform="translate(0 0)"/><rect class="cls-4" x="536.13" y="25.13" width="13.46" height="3.36" transform="translate(139.74 391.38) rotate(-44.95)"/><path d="M298.94,21.09a10.55,10.55,0,1,1,10.54-10.55,10.56,10.56,0,0,1-10.54,10.55h0Zm0-19.18a8.63,8.63,0,1,0,8.63,8.63,8.64,8.64,0,0,0-8.63-8.63h0Z" transform="translate(0 0)"/><rect x="295.11" y="9.59" width="7.67" height="1.92"/><rect x="297.98" y="6.71" width="1.92" height="7.67"/><path class="cls-4" d="M123.48,580.35a14.12,14.12,0,1,1,14.12-14.12,14.14,14.14,0,0,1-14.12,14.12h0Zm0-25.68A11.55,11.55,0,1,0,135,566.22a11.57,11.57,0,0,0-11.55-11.55h0Z" transform="translate(0 0)"/><rect class="cls-4" x="118.35" y="564.94" width="10.27" height="2.57"/><rect class="cls-4" x="122.2" y="561.09" width="2.57" height="10.27"/><path class="cls-4" d="M298.94,99.77a10.55,10.55,0,1,1,10.54-10.55,10.56,10.56,0,0,1-10.54,10.55h0Zm0-19.18a8.63,8.63,0,1,0,8.63,8.63,8.64,8.64,0,0,0-8.63-8.63h0Z" transform="translate(0 0)"/><rect class="cls-4" x="295.11" y="88.26" width="7.67" height="1.92"/><rect class="cls-4" x="297.98" y="85.39" width="1.92" height="7.67"/><rect class="cls-7" x="409.98" y="116.83" width="3.65" height="16.42"/><path class="cls-8" d="M291.49,43.22a10.55,10.55,0,1,1,14.92,0,10.56,10.56,0,0,1-14.92,0h0ZM305,29.66a8.63,8.63,0,1,0,0,12.2,8.64,8.64,0,0,0,0-12.2h0Z" transform="translate(0 0)"/><rect class="cls-8" x="295.1" y="34.79" width="7.67" height="1.92"/><path class="cls-7" d="M291.49,69.4a10.55,10.55,0,1,1,14.92,0,10.56,10.56,0,0,1-14.92,0h0ZM305,55.84A8.63,8.63,0,1,0,305,68a8.64,8.64,0,0,0,0-12.2h0Z" transform="translate(0 0)"/><rect class="cls-7" x="295.09" y="61" width="7.67" height="1.92"/><path class="cls-2" d="M325.76,21.09A10.55,10.55,0,1,1,336.3,10.55a10.56,10.56,0,0,1-10.54,10.55h0Zm0-19.18a8.63,8.63,0,1,0,8.63,8.63,8.64,8.64,0,0,0-8.63-8.63h0Z" transform="translate(0 0)"/><rect class="cls-2" x="321.93" y="9.59" width="7.67" height="1.92"/><rect class="cls-2" x="324.8" y="6.71" width="1.92" height="7.67"/><path class="cls-2" d="M318.31,43.22a10.55,10.55,0,1,1,14.91,0,10.57,10.57,0,0,1-14.91,0h0Zm13.56-13.56a8.63,8.63,0,1,0,0,12.2,8.64,8.64,0,0,0,0-12.2h0Z" transform="translate(0 0)"/><rect class="cls-2" x="321.91" y="34.82" width="7.67" height="1.92"/><rect class="cls-2" x="14.62" y="492.61" width="3.63" height="12.6" transform="translate(-348.02 157.8) rotate(-45.01)"/><rect class="cls-2" x="10.2" y="503.49" width="12.61" height="3.62" transform="translate(-352.5 159.7) rotate(-45.01)"/><path class="cls-2" d="M4.42,576a15.12,15.12,0,1,1,21.39,0A15.14,15.14,0,0,1,4.42,576Zm19.45-19.45a12.37,12.37,0,1,0,0,17.5A12.39,12.39,0,0,0,23.87,556.56Z" transform="translate(0 0)"/><path class="cls-2" d="M5.51,643.59a15.58,15.58,0,1,1,22,0,15.6,15.6,0,0,1-22,0h0Zm20-20a12.75,12.75,0,1,0,0,18,12.76,12.76,0,0,0,0-18h0Z" transform="translate(0 0)"/><rect class="cls-2" x="16.46" y="625.2" width="2.84" height="9.85" transform="translate(-440.39 197.26) rotate(-45.01)"/><rect class="cls-2" x="12.94" y="633.74" width="9.86" height="2.83" transform="translate(-444.16 198.95) rotate(-45.04)"/><path class="cls-4" d="M53.86,643.59a15.58,15.58,0,1,1,22,0,15.6,15.6,0,0,1-22,0h0Zm20-20a12.75,12.75,0,1,0,0,18,12.76,12.76,0,0,0,0-18h0Z" transform="translate(0 0)"/><rect class="cls-4" x="64.74" y="625.16" width="2.83" height="9.86" transform="translate(-426.11 231.26) rotate(-44.99)"/><rect class="cls-4" x="61.31" y="633.6" width="9.85" height="2.83" transform="translate(-429.74 232.96) rotate(-45.02)"/>
<polygon class="cls-9" points="263.49 23.28 263.49 19.05 267.61 19.05 267.61 23.28 271.86 23.28 271.86 17.87 265.65 12.17 259.38 17.91 259.38 23.28 263.49 23.28"/>
<polygon class="cls-9" points="272.69 17.22 265.62 10.76 258.54 17.22 257.1 15.64 265.62 7.85 274.14 15.64 272.69 17.22"/><rect class="cls-10" x="138.31" y="236.52" width="25.52" height="25.52"/><path class="cls-4" d="M149.3,239h-1.16l-0.79,3-0.81-3h-1.21l0.74,2.14a18.72,18.72,0,0,1,.7,2.43v3.11h1.15v-3.11L149.3,239h0Zm3.07,5.82v-2a2.26,2.26,0,0,0-.32-1.35,1.54,1.54,0,0,0-2.42,0,2.22,2.22,0,0,0-.32,1.35v2a2.21,2.21,0,0,0,.32,1.35,1.54,1.54,0,0,0,2.42,0,2.23,2.23,0,0,0,.33-1.35h0Zm-1,.2c0,0.53-.16.79-0.49,0.79s-0.5-.26-0.5-0.79v-2.41c0-.53.16-0.79,0.5-0.79s0.49,0.26.49,0.79V245h0Zm4.87,1.65V241h-1v4.37a0.91,0.91,0,0,1-.66.49,0.24,0.24,0,0,1-.24-0.24,2.17,2.17,0,0,1,0-.4V241h-1v4.52a2.89,2.89,0,0,0,.09.85,0.63,0.63,0,0,0,.67.43,1.66,1.66,0,0,0,1.18-.7v0.62h1Z" transform="translate(0 0)"/><path class="cls-4" d="M159.56,253.64a18.11,18.11,0,0,1-.3,4,2.15,2.15,0,0,1-1.84,1.67,57.38,57.38,0,0,1-6.36.23,56.89,56.89,0,0,1-6.36-.23,2.14,2.14,0,0,1-1.83-1.67,27.23,27.23,0,0,1,0-8,2.14,2.14,0,0,1,1.83-1.67,57.35,57.35,0,0,1,6.36-.23,57.35,57.35,0,0,1,6.36.23,2.14,2.14,0,0,1,1.83,1.67,17.29,17.29,0,0,1,.31,4h0Z" transform="translate(0 0)"/><path class="cls-10" d="M147.43,250.78v-1.07h-3.58v1.07h1.21v6.53h1.14v-6.53h1.23Zm2.07,6.53v-0.62a1.64,1.64,0,0,1-1.17.7,0.63,0.63,0,0,1-.66-0.42,2.89,2.89,0,0,1-.09-0.84v-4.48h1v4.17a3,3,0,0,0,0,.4,0.23,0.23,0,0,0,.24.24,0.9,0.9,0,0,0,.65-0.48v-4.33h1v5.66h-1Zm3.9-1.62c0,0.51-.15.76-0.45,0.76a0.73,0.73,0,0,1-.51-0.25v-3.45a0.74,0.74,0,0,1,.51-0.25c0.29,0,.45.27,0.45,0.77v2.42h0Zm1-.08v-2.25a4.36,4.36,0,0,0-.1-1.14,0.81,0.81,0,0,0-.82-0.64,1.39,1.39,0,0,0-1.06.61v-2.48h-1v7.6h1v-0.55a1.4,1.4,0,0,0,1.06.63,0.81,0.81,0,0,0,.82-0.64,4.63,4.63,0,0,0,.1-1.15h0Zm2.85-1.8h-1v-0.52c0-.52.17-0.79,0.51-0.79s0.51,0.26.51,0.79v0.52h0Zm1,1.69v-0.15h-1a6.36,6.36,0,0,1,0,.69,0.44,0.44,0,0,1-.46.41c-0.35,0-.52-0.26-0.52-0.79v-1h2.05V253.5a2.22,2.22,0,0,0-.32-1.33,1.42,1.42,0,0,0-1.21-.58,1.46,1.46,0,0,0-1.23.58,2.2,2.2,0,0,0-.32,1.33v2a2.19,2.19,0,0,0,.33,1.33,1.47,1.47,0,0,0,1.24.58,1.42,1.42,0,0,0,1.24-.61,1.44,1.44,0,0,0,.24-0.61,6.52,6.52,0,0,0,0-.66h0Z" transform="translate(0 0)"/><rect class="cls-11" x="276.69" y="236.52" width="25.52" height="25.52"/><path class="cls-4" d="M289,240.52a3.09,3.09,0,0,1,.54.43,4.41,4.41,0,0,1,.56.73,4.85,4.85,0,0,1,.47,1,4.53,4.53,0,0,1,.16,1.3,3.84,3.84,0,0,1-.6,2.18,6.53,6.53,0,0,1-.6.73q-0.35.34-.75,0.68a3.37,3.37,0,0,0-.42.53,1.18,1.18,0,0,0-.23.72,1,1,0,0,0,.24.66,5.38,5.38,0,0,0,.38.43l0.86,0.71a8.68,8.68,0,0,1,1.41,1.45,3.72,3.72,0,0,1,.6,2.11,4.26,4.26,0,0,1-1.63,3.27,7.41,7.41,0,0,1-4.89,1.52,6.18,6.18,0,0,1-4-1.14,3.08,3.08,0,0,1-1.33-2.49,3.55,3.55,0,0,1,.43-1.57,3.71,3.71,0,0,1,1.52-1.52,7.92,7.92,0,0,1,2.59-.94,20,20,0,0,1,2.24-.22,5.36,5.36,0,0,1-.49-0.77,1.8,1.8,0,0,1-.25-1,1.43,1.43,0,0,1,.09-0.56l0.16-.44a7.24,7.24,0,0,1-.81,0,3.9,3.9,0,0,1-3.1-1.28,3.82,3.82,0,0,1-1.12-2.72,4.64,4.64,0,0,1,1.58-3.4,5.54,5.54,0,0,1,2.25-1.17,10.89,10.89,0,0,1,2.17-.23h5.08l-1.57.92H289l0,0Zm1,14.64a2.46,2.46,0,0,0-.63-1.68,15.56,15.56,0,0,0-2.09-1.68,5.22,5.22,0,0,0-.57,0,6.48,6.48,0,0,0-1,0,10.9,10.9,0,0,0-1.61.36l-0.55.22a3.45,3.45,0,0,0-.72.46,2.67,2.67,0,0,0-.59.77,2.29,2.29,0,0,0-.28,1.17A2.62,2.62,0,0,0,283.2,257a5.26,5.26,0,0,0,3.16.89,4.38,4.38,0,0,0,2.74-.79,2.42,2.42,0,0,0,.93-2h0Zm-3.54-7.46a2.4,2.4,0,0,0,1.68-.72,2.64,2.64,0,0,0,.42-1c0-.34.06-0.63,0.06-0.86a6.66,6.66,0,0,0-.77-3,3.36,3.36,0,0,0-.95-1.19,2.45,2.45,0,0,0-1.38-.46,2.25,2.25,0,0,0-1.72.83,3.17,3.17,0,0,0-.55,1.89,6,6,0,0,0,.81,2.87,4,4,0,0,0,1,1.18,2.14,2.14,0,0,0,1.39.48h0Z" transform="translate(0 0)"/>
<polygon class="cls-4" points="299.07 242.38 296.4 242.38 296.4 239.71 295.11 239.71 295.11 242.38 292.44 242.38 292.44 243.67 295.11 243.67 295.11 246.34 296.4 246.34 296.4 243.67 299.07 243.67 299.07 242.38"/><rect class="cls-12" x="230.62" y="236.58" width="25.4" height="25.4"/><path class="cls-4" d="M246,244.78a1.17,1.17,0,1,1,2.32.2,12.56,12.56,0,0,1-.39,3h2.41a21.52,21.52,0,0,0,.18-3.52c0-3.67-6.77-4.28-6.77.37a6.23,6.23,0,0,0,3.14,5.88,13.28,13.28,0,0,1-3.14,4.06c-5.05-4.12-4.56-11.08-4.56-11.08H237c0,9.41,5,12.71,5.62,13.2a1.52,1.52,0,0,0,1.47.41c0.73,0,2.4-1.71,4.44-4.89,0.2-.31.37-0.6,0.53-0.89a7.7,7.7,0,0,0,1.46.2v-2a4.71,4.71,0,0,1-4.53-5h0Z" transform="translate(0 0)"/><rect class="cls-13" x="322.81" y="236.52" width="25.52" height="25.52"/>
<polygon class="cls-8" points="322.81 262.04 322.81 262.07 348.36 262.07 348.36 236.5 322.78 236.5 322.78 262.07 322.81 262.07 322.81 262.04 322.84 262.04 322.84 236.55 348.31 236.55 348.31 262.02 322.81 262.02 322.81 262.04 322.84 262.04 322.81 262.04"/><path class="cls-4" d="M329.33,240.88h12.5A2.16,2.16,0,0,1,344,243v12.5a2.16,2.16,0,0,1-2.15,2.16h-12.5a2.16,2.16,0,0,1-2.16-2.16V243a2.18,2.18,0,0,1,2.17-2.16h0Zm10.08,1.87a0.76,0.76,0,0,0-.76.76v1.81a0.76,0.76,0,0,0,.76.76h1.9a0.77,0.77,0,0,0,.76-0.76v-1.81a0.77,0.77,0,0,0-.76-0.76h-1.9Zm2.67,5.24H340.6a4.72,4.72,0,0,1,.22,1.44,5.23,5.23,0,0,1-10.45,0,4.9,4.9,0,0,1,.22-1.44H329v7.1a0.67,0.67,0,0,0,.67.67h11.71a0.67,0.67,0,0,0,.67-0.67V248h0Zm-6.49-2a3.27,3.27,0,1,0,3.38,3.27,3.32,3.32,0,0,0-3.38-3.27h0Z" transform="translate(0 0)"/><rect class="cls-14" x="92.19" y="236.52" width="25.52" height="25.52"/><path class="cls-4" d="M105,240.05a9.23,9.23,0,0,0-3.71,17.69,8.06,8.06,0,0,1,.16-2.12l1.19-5a3.54,3.54,0,0,1-.29-1.46c0-1.37.79-2.39,1.78-2.39a1.24,1.24,0,0,1,1.25,1.39,19.92,19.92,0,0,1-.82,3.27,1.43,1.43,0,0,0,1.46,1.78c1.75,0,2.93-2.25,2.93-4.91,0-2-1.36-3.54-3.84-3.54a4.37,4.37,0,0,0-4.54,4.42,2.67,2.67,0,0,0,.61,1.81,0.44,0.44,0,0,1,.13.51l-0.19.74a0.32,0.32,0,0,1-.46.23,3.55,3.55,0,0,1-1.89-3.53c0-2.62,2.21-5.77,6.6-5.77a5.52,5.52,0,0,1,5.84,5.29c0,3.62-2,6.33-5,6.33a2.65,2.65,0,0,1-2.25-1.15s-0.54,2.13-.65,2.54a7.74,7.74,0,0,1-.93,2A9.23,9.23,0,1,0,104.94,240h0Z" transform="translate(0 0)"/><rect class="cls-15" y="236.58" width="25.4" height="25.4"/><path class="cls-4" d="M22.15,251.79l0.5-3.89H18.8v-2.48c0-1.12.31-1.9,1.93-1.9h2.06V240a27.64,27.64,0,0,0-3-.15c-3,0-5,1.81-5,5.14v2.87H11.43v3.89h3.36v10h4v-10h3.35Z" transform="translate(0 0)"/><rect class="cls-16" x="184.44" y="236.52" width="25.52" height="25.52"/><path class="cls-4" d="M188.8,246.38h3.6V258h-3.6V246.38Zm1.81-5.76a2.08,2.08,0,1,1-2.09,2.08,2.09,2.09,0,0,1,2.09-2.08" transform="translate(0 0)"/><path class="cls-4" d="M194.66,246.38h3.45V248h0a3.78,3.78,0,0,1,3.4-1.87c3.64,0,4.31,2.4,4.31,5.51V258h-3.59v-5.62c0-1.34,0-3.07-1.87-3.07s-2.16,1.46-2.16,3v5.72h-3.59V246.39h0Z" transform="translate(0 0)"/><rect class="cls-17" x="46.06" y="236.52" width="25.52" height="25.52"/><path class="cls-4" d="M67.33,244a7,7,0,0,1-2,.55,3.49,3.49,0,0,0,1.53-1.93,7,7,0,0,1-2.22.85,3.49,3.49,0,0,0-6,2.39,3.54,3.54,0,0,0,.09.79A9.91,9.91,0,0,1,51.5,243a3.5,3.5,0,0,0,1.08,4.66,3.47,3.47,0,0,1-1.58-.44v0a3.49,3.49,0,0,0,2.8,3.42,3.49,3.49,0,0,1-1.58.06,3.49,3.49,0,0,0,3.26,2.42,7,7,0,0,1-4.34,1.5,7.1,7.1,0,0,1-.83-0.05,9.93,9.93,0,0,0,15.28-8.36c0-.15,0-0.3,0-0.45A7.31,7.31,0,0,0,67.33,244h0Z" transform="translate(0 0)"/><path class="cls-18" d="M151.38,206c0.33,0,.49-0.26.49-0.79v-2.41c0-.53-0.16-0.79-0.49-0.79s-0.5.26-.5,0.79v2.41c0,0.53.17,0.79,0.5,0.79h0Z" transform="translate(0 0)"/><path class="cls-18" d="M138.86,222.23h25.52V196.71H138.86v25.52h0Zm14.9-21.07h1v4.21a2.31,2.31,0,0,0,0,.4,0.24,0.24,0,0,0,.24.24,0.91,0.91,0,0,0,.66-0.48v-4.37h1v5.72h-1v-0.62a1.67,1.67,0,0,1-1.19.7,0.64,0.64,0,0,1-.67-0.43,2.88,2.88,0,0,1-.09-0.85v-4.51h0ZM149.85,203a2.23,2.23,0,0,1,.32-1.35,1.54,1.54,0,0,1,2.42,0,2.26,2.26,0,0,1,.32,1.35v2a2.25,2.25,0,0,1-.32,1.35,1.54,1.54,0,0,1-2.42,0,2.22,2.22,0,0,1-.32-1.35v-2h0Zm-2.77-3.82,0.81,3,0.79-3h1.16l-1.38,4.57v3.11h-1.15v-3.11a19,19,0,0,0-.7-2.43c-0.24-.71-0.5-1.43-0.74-2.14h1.21Zm-3.65,10.61a2.14,2.14,0,0,1,1.83-1.67,57.12,57.12,0,0,1,6.36-.23,57.12,57.12,0,0,1,6.36.23,2.14,2.14,0,0,1,1.83,1.67,27.4,27.4,0,0,1,0,8,2.14,2.14,0,0,1-1.83,1.67,57.28,57.28,0,0,1-6.36.24,57.27,57.27,0,0,1-6.36-.24,2.14,2.14,0,0,1-1.83-1.67,18.1,18.1,0,0,1-.3-4,19.14,19.14,0,0,1,.32-4h0Z" transform="translate(0 0)"/><path class="cls-18" d="M148.87,217.57a1.64,1.64,0,0,0,1.17-.7v0.62h1v-5.66h-1v4.33a0.9,0.9,0,0,1-.65.48,0.24,0.24,0,0,1-.24-0.24,3,3,0,0,1,0-.4v-4.17h-1v4.48a2.91,2.91,0,0,0,.09.84,0.62,0.62,0,0,0,.66.42h0Z" transform="translate(0 0)"/><path class="cls-18" d="M153,216.94a1.4,1.4,0,0,0,1.06.63,0.81,0.81,0,0,0,.82-0.64,4.53,4.53,0,0,0,.1-1.14v-2.25a4.38,4.38,0,0,0-.1-1.14,0.81,0.81,0,0,0-.82-0.64,1.39,1.39,0,0,0-1.06.61v-2.48h-1v7.6h1v-0.55h0Zm0-4a0.74,0.74,0,0,1,.51-0.25c0.3,0,.45.26,0.45,0.77v2.42c0,0.51-.15.76-0.45,0.76a0.74,0.74,0,0,1-.51-0.25v-3.45h0Z" transform="translate(0 0)"/>
<polygon class="cls-18" points="145.6 217.49 146.74 217.49 146.74 210.96 147.97 210.96 147.97 209.89 144.39 209.89 144.39 210.96 145.6 210.96 145.6 217.49"/><path class="cls-18" d="M157.34,217.57a1.42,1.42,0,0,0,1.24-.61,1.46,1.46,0,0,0,.24-0.62c0-.1,0-0.33,0-0.66v-0.15h-1a6.82,6.82,0,0,1,0,.69,0.44,0.44,0,0,1-.46.41c-0.35,0-.52-0.26-0.52-0.79v-1h2.05v-1.17a2.22,2.22,0,0,0-.32-1.33,1.42,1.42,0,0,0-1.21-.58,1.46,1.46,0,0,0-1.23.58,2.2,2.2,0,0,0-.32,1.33v2a2.19,2.19,0,0,0,.33,1.33,1.46,1.46,0,0,0,1.25.59h0Zm-0.55-4.1c0-.52.17-0.79,0.52-0.79s0.51,0.26.51,0.79V214h-1v-0.52h0Z" transform="translate(0 0)"/><path class="cls-18" d="M289.11,206.17a8.43,8.43,0,0,0,.06-0.86,6.71,6.71,0,0,0-.77-3,3.41,3.41,0,0,0-1-1.19,2.44,2.44,0,0,0-1.38-.46,2.24,2.24,0,0,0-1.72.83,3.17,3.17,0,0,0-.55,1.89,6,6,0,0,0,.81,2.87,4,4,0,0,0,1,1.18,2.24,2.24,0,0,0,1.41.49,2.4,2.4,0,0,0,1.68-.72,2.92,2.92,0,0,0,.4-1h0Z" transform="translate(0 0)"/><path class="cls-18" d="M283.74,217.19a5.26,5.26,0,0,0,3.16.89,4.38,4.38,0,0,0,2.74-.79,2.41,2.41,0,0,0,.92-1.95,2.47,2.47,0,0,0-.63-1.69,15.6,15.6,0,0,0-2.09-1.68,5.51,5.51,0,0,0-.57,0,6.57,6.57,0,0,0-1,0,11,11,0,0,0-1.62.36l-0.54.22a3.41,3.41,0,0,0-.72.46,2.65,2.65,0,0,0-.59.77,2.28,2.28,0,0,0-.28,1.16,2.62,2.62,0,0,0,1.21,2.21h0Z" transform="translate(0 0)"/><path class="cls-18" d="M277.23,222.23h25.52V196.71H277.23v25.52h0ZM293,202.56h2.66V199.9h1.29v2.67h2.67v1.29h-2.67v2.67h-1.29v-2.67H293v-1.29h0ZM280.8,214a3.73,3.73,0,0,1,1.52-1.52,7.92,7.92,0,0,1,2.59-.94,20.2,20.2,0,0,1,2.24-.22,5.53,5.53,0,0,1-.49-0.77,1.77,1.77,0,0,1-.25-1,1.43,1.43,0,0,1,.09-0.56l0.16-.44a7.28,7.28,0,0,1-.82,0,3.91,3.91,0,0,1-3.1-1.28,3.82,3.82,0,0,1-1.12-2.72,4.63,4.63,0,0,1,1.58-3.4,5.56,5.56,0,0,1,2.25-1.17,11,11,0,0,1,2.17-.24h5.08l-1.57.92h-1.57a3.22,3.22,0,0,1,.54.43,4.41,4.41,0,0,1,.56.73,4.85,4.85,0,0,1,.47,1,4.54,4.54,0,0,1,.16,1.3,3.84,3.84,0,0,1-.6,2.18,6.93,6.93,0,0,1-.6.73l-0.75.68a3.37,3.37,0,0,0-.42.53,1.19,1.19,0,0,0-.23.72,1,1,0,0,0,.23.66,4.84,4.84,0,0,0,.38.43l0.86,0.71a8.61,8.61,0,0,1,1.41,1.45,3.7,3.7,0,0,1,.6,2.11,4.26,4.26,0,0,1-1.63,3.27,7.4,7.4,0,0,1-4.89,1.52,6.16,6.16,0,0,1-4-1.14,3.08,3.08,0,0,1-1.33-2.49,4.51,4.51,0,0,1,.47-1.54Z" transform="translate(0 0)"/><path class="cls-18" d="M231.17,222.11h25.4v-25.4h-25.4v25.4h0Zm8.54-18.27s-0.49,7,4.56,11.08a13.26,13.26,0,0,0,3.14-4.06,6.23,6.23,0,0,1-3.14-5.88c0-4.65,6.77-4,6.77-.37a21.64,21.64,0,0,1-.18,3.52h-2.42a12.63,12.63,0,0,0,.39-3,1.17,1.17,0,1,0-2.32-.2,4.72,4.72,0,0,0,4.52,5v2a7.53,7.53,0,0,1-1.46-.2c-0.16.29-.34,0.58-0.53,0.89-2,3.18-3.71,4.85-4.44,4.89a1.52,1.52,0,0,1-1.47-.41c-0.61-.49-5.58-3.79-5.62-13.2h2.2Z" transform="translate(0 0)"/><path class="cls-18" d="M348.85,196.71H323.37v25.47h25.48V196.71h0Zm-4.33,19a2.16,2.16,0,0,1-2.15,2.16h-12.5a2.16,2.16,0,0,1-2.16-2.16V203.2a2.16,2.16,0,0,1,2.16-2.16h12.5a2.16,2.16,0,0,1,2.15,2.16v12.49h0Z" transform="translate(0 0)"/><path class="cls-18" d="M340,206.23h1.9a0.76,0.76,0,0,0,.76-0.76v-1.81a0.77,0.77,0,0,0-.76-0.76H340a0.76,0.76,0,0,0-.76.76v1.81a0.76,0.76,0,0,0,.76.76h0Z" transform="translate(0 0)"/><path class="cls-18" d="M341.36,209.59a5.23,5.23,0,0,1-10.45,0,5,5,0,0,1,.22-1.44h-1.54v7.1a0.67,0.67,0,0,0,.67.67H342a0.67,0.67,0,0,0,.67-0.67v-7.1h-1.48a5.62,5.62,0,0,1,.2,1.44h0Z" transform="translate(0 0)"/><ellipse class="cls-18" cx="336.13" cy="209.41" rx="3.38" ry="3.27"/><rect class="cls-19" x="367.15" y="236.52" width="25.52" height="25.52"/><path class="cls-18" d="M92.73,222.23h25.52V196.71H92.73v25.52h0Zm12.76-22a9.23,9.23,0,1,1-2.62,18.08,7.8,7.8,0,0,0,.93-2c0.11-.41.65-2.54,0.65-2.54a2.65,2.65,0,0,0,2.25,1.15c3,0,5-2.71,5-6.33a5.52,5.52,0,0,0-5.84-5.29c-4.39,0-6.6,3.15-6.6,5.77a3.55,3.55,0,0,0,1.89,3.53,0.32,0.32,0,0,0,.46-0.23c0-.16.14-0.57,0.19-0.74a0.44,0.44,0,0,0-.13-0.51,2.67,2.67,0,0,1-.61-1.81,4.37,4.37,0,0,1,4.54-4.42c2.48,0,3.84,1.51,3.84,3.54,0,2.66-1.18,4.91-2.93,4.91a1.43,1.43,0,0,1-1.46-1.78,19.9,19.9,0,0,0,.81-3.28,1.24,1.24,0,0,0-1.24-1.39c-1,0-1.78,1-1.78,2.39a3.54,3.54,0,0,0,.3,1.46l-1.19,5a8.13,8.13,0,0,0-.16,2.12,9.22,9.22,0,0,1,3.72-17.67h0Z" transform="translate(0 0)"/><path class="cls-18" d="M0.54,222.11h25.4v-25.4H0.54v25.4ZM12,208h3.36v-2.87c0-3.33,2-5.14,5-5.14a27.69,27.69,0,0,1,3,.15v3.48H21.27c-1.61,0-1.93.77-1.93,1.89V208H23.2l-0.5,3.89H19.35v10h-4v-10H12V208h0Z" transform="translate(0 0)"/><path class="cls-18" d="M185,222.23H210.5V196.71H185v25.52h0Zm8-4.1h-3.6V206.56H193v11.57h0Zm2.26-11.57h3.45v1.58h0a3.78,3.78,0,0,1,3.4-1.87c3.64,0,4.31,2.4,4.31,5.51v6.34h-3.59v-5.62c0-1.34,0-3.07-1.87-3.07s-2.16,1.46-2.16,3v5.72h-3.59V206.57h0Zm-4.06-5.75a2.08,2.08,0,1,1-2.09,2.08,2.09,2.09,0,0,1,2.09-2.08h0Z" transform="translate(0 0)"/><path class="cls-18" d="M46.61,222.23H72.13V196.71H46.61v25.52h0Zm6.16-11.29a3.39,3.39,0,0,0,.66.06,3.49,3.49,0,0,0,.92-0.12,3.49,3.49,0,0,1-2.8-3.42v0a3.49,3.49,0,0,0,1.58.44A3.5,3.5,0,0,1,52,203.19a9.9,9.9,0,0,0,7.19,3.65,3.49,3.49,0,0,1,5.95-3.18,7,7,0,0,0,2.22-.85,3.49,3.49,0,0,1-1.54,1.93,6.92,6.92,0,0,0,2-.55A7.11,7.11,0,0,1,66.13,206c0,0.15,0,.3,0,0.45a9.93,9.93,0,0,1-15.28,8.36,7.2,7.2,0,0,0,.83,0A7,7,0,0,0,56,213.37a3.52,3.52,0,0,1-3.26-2.44h0Z" transform="translate(0 0)"/><path class="cls-4" d="M500.94,37.81l8-8,2.28,2.35-5.74,5.66,5.74,5.7-2.28,2.28-8-8h0Z" transform="translate(0 0)"/><path class="cls-4" d="M478.06,45.82l-2.27-2.28,5.73-5.7-5.73-5.66,2.27-2.35,8,8-8,8h0Z" transform="translate(0 0)"/><path class="cls-2" d="M456.76,1.34a4.37,4.37,0,0,1,1.34,3.22v9.12a4.56,4.56,0,0,1-4.56,4.56h-9.12a4.56,4.56,0,0,1-4.56-4.56V4.56a4.36,4.36,0,0,1,1.34-3.22A4.36,4.36,0,0,1,444.41,0h9.12a4.38,4.38,0,0,1,3.22,1.34h0Zm-1.91,5.43-1-1a0.28,0.28,0,0,0-.46,0l-5.09,5.06a0.31,0.31,0,0,1-.5,0l-2.21-2.28a0.48,0.48,0,0,0-.5,0l-1,.89a0.33,0.33,0,0,0-.1.25,0.3,0.3,0,0,0,.1.25l2.24,2.39a0.69,0.69,0,0,1,.16.12l0.19,0.2a0.75,0.75,0,0,0,.15.14l1,1a0.35,0.35,0,0,0,.5,0l6.52-6.55a0.3,0.3,0,0,0,0-.5h0Z" transform="translate(0 0)"/><path class="cls-20" d="M444.16,26.21h9.12a4.56,4.56,0,0,1,4.56,4.56v9.12a4.56,4.56,0,0,1-4.56,4.56h-9.12a4.56,4.56,0,0,1-4.57-4.56V30.77a4.56,4.56,0,0,1,4.57-4.56h0Z" transform="translate(0 0)"/><path class="cls-4" d="M517.38,4.39a0.65,0.65,0,0,1,0,.82l-10.9,10.9a0.52,0.52,0,0,1-.81,0l-1.6-1.64-0.81-.82-3.74-3.92a0.67,0.67,0,0,1-.14-0.43,0.62,0.62,0,0,1,.14-0.39l1.65-1.46a0.58,0.58,0,0,1,.44-0.18,0.56,0.56,0,0,1,.4.18l3.7,3.78a0.52,0.52,0,0,0,.82,0L515,2.79a0.54,0.54,0,0,1,.4-0.18,0.57,0.57,0,0,1,.41.18l1.56,1.6h0Z" transform="translate(0 0)"/>
<polygon class="cls-4" points="489.88 70.32 489.89 70.32 476.97 56.71 474.07 59.47 484.37 70.32 474.07 81.18 476.97 83.93 489.89 70.33 489.88 70.32"/>
<polygon class="cls-4" points="498.88 70.32 498.87 70.32 511.78 56.71 514.69 59.47 504.39 70.32 514.69 81.18 511.78 83.93 498.87 70.33 498.88 70.32"/><path class="cls-4" d="M99.17,321.84c3.19,0,5.79-3.29,5.79-7.34s-2.6-7.34-5.79-7.34-5.79,3.29-5.79,7.34,2.6,7.34,5.79,7.34h0Zm0-13.13c2.3,0,4.25,2.65,4.25,5.79s-1.95,5.79-4.25,5.79-4.25-2.65-4.25-5.79,1.95-5.79,4.25-5.79h0Z" transform="translate(0 0)"/><path class="cls-4" d="M88.39,323.14l-1.54,4.64a0.77,0.77,0,0,0,.73,1h23.17a0.77,0.77,0,0,0,.63-0.32,0.76,0.76,0,0,0,.11-0.69l-1.54-4.64a0.79,0.79,0,0,0-.52-0.5L104,321.1a0.72,0.72,0,0,0-.56.06l-4.29,2.15-4.29-2.15a0.81,0.81,0,0,0-.56-0.06l-5.4,1.54a0.78,0.78,0,0,0-.52.5h0Zm6.06-.48,4.36,2.18a0.78,0.78,0,0,0,.69,0l4.36-2.18L108.6,324l1.08,3.23h-21L89.72,324l4.72-1.35h0Z" transform="translate(0 0)"/><path class="cls-8" d="M378.21,165.86c2.64,0,4.79-2.72,4.79-6.07s-2.15-6.06-4.79-6.06-4.79,2.72-4.79,6.06,2.15,6.08,4.79,6.08h0Z" transform="translate(0 0)"/><path class="cls-8" d="M369.3,167.74L368,171.57a0.64,0.64,0,0,0,.61.84h19.15a0.64,0.64,0,0,0,.61-0.84l-1.27-3.83a0.64,0.64,0,0,0-.43-0.41l-4.47-1.28a0.63,0.63,0,0,0-.46,0l-3.54,1.77-3.55-1.77a0.64,0.64,0,0,0-.46,0l-4.47,1.28a0.68,0.68,0,0,0-.44.42h0Z" transform="translate(0 0)"/><path class="cls-4" d="M65.92,308.71H62.83v-0.77a0.76,0.76,0,0,0-.77-0.77H59.74a0.77,0.77,0,0,0-.77.77v0.77H49.7v-0.77a0.77,0.77,0,0,0-.77-0.77H46.62a0.77,0.77,0,0,0-.77.77v0.77H42.75a0.77,0.77,0,0,0-.77.77V328a0.77,0.77,0,0,0,.77.77H65.92a0.78,0.78,0,0,0,.77-0.77V309.48a0.78,0.78,0,0,0-.77-0.77h0Zm-5.41,0h0.77v1.54H60.52v-1.54h0Zm-13.13,0h0.77v1.54H47.39v-1.54h0Zm17.76,18.54H43.52v-17h2.32V311a0.77,0.77,0,0,0,.77.77h2.32A0.77,0.77,0,0,0,49.7,311v-0.77H59V311a0.77,0.77,0,0,0,.77.77h2.32a0.77,0.77,0,0,0,.77-0.77v-0.77h2.32v17Z" transform="translate(0 0)"/><path class="cls-4" d="M49.7,314.89H46.62a0.78,0.78,0,0,0-.77.77v3.09a0.77,0.77,0,0,0,.77.77H49.7a0.78,0.78,0,0,0,.77-0.77v-3.09a0.78,0.78,0,0,0-.77-0.77h0ZM48.93,318H47.39v-1.54h1.54V318h0Z" transform="translate(0 0)"/><path class="cls-4" d="M55.88,314.89H52.79a0.78,0.78,0,0,0-.77.77v3.09a0.77,0.77,0,0,0,.77.77h3.09a0.78,0.78,0,0,0,.77-0.77v-3.09a0.78,0.78,0,0,0-.77-0.77h0ZM55.11,318H53.56v-1.54h1.54V318h0Z" transform="translate(0 0)"/><path class="cls-4" d="M62.06,314.89H59a0.78,0.78,0,0,0-.77.77v3.09a0.77,0.77,0,0,0,.77.77h3.09a0.78,0.78,0,0,0,.77-0.77v-3.09a0.78,0.78,0,0,0-.77-0.77h0ZM61.29,318H59.74v-1.54h1.54V318h0Z" transform="translate(0 0)"/><path class="cls-4" d="M49.7,321.07H46.62a0.77,0.77,0,0,0-.77.77v3.09a0.77,0.77,0,0,0,.77.77H49.7a0.78,0.78,0,0,0,.77-0.77v-3.09a0.77,0.77,0,0,0-.77-0.77h0Zm-0.77,3.09H47.39v-1.55h1.54v1.55h0Z" transform="translate(0 0)"/><path class="cls-4" d="M55.88,321.07H52.79a0.77,0.77,0,0,0-.77.77v3.09a0.77,0.77,0,0,0,.77.77h3.09a0.78,0.78,0,0,0,.77-0.77v-3.09a0.77,0.77,0,0,0-.77-0.77h0Zm-0.77,3.09H53.56v-1.55h1.54v1.55h0Z" transform="translate(0 0)"/><path class="cls-4" d="M62.06,321.07H59a0.77,0.77,0,0,0-.77.77v3.09a0.77,0.77,0,0,0,.77.77h3.09a0.78,0.78,0,0,0,.77-0.77v-3.09a0.77,0.77,0,0,0-.77-0.77h0Zm-0.77,3.09H59.74v-1.55h1.54v1.55h0Z" transform="translate(0 0)"/><path class="cls-4" d="M227.09,330.34h14.67a1.55,1.55,0,0,0,1.54-1.55V307.17a1.55,1.55,0,0,0-1.54-1.54H227.09a1.55,1.55,0,0,0-1.54,1.54v2.32h-0.77a0.77,0.77,0,1,0,0,1.54h0.77v1.55h-0.77a0.77,0.77,0,1,0,0,1.54h0.77v1.54h-0.77a0.77,0.77,0,1,0,0,1.54h0.77v1.54h-0.77a0.77,0.77,0,0,0-.77.77,0.76,0.76,0,0,0,.77.77h0.77v1.54h-0.77a0.77,0.77,0,1,0,0,1.54h0.77v1.55h-0.77a0.77,0.77,0,1,0,0,1.54h0.77v2.32a1.55,1.55,0,0,0,1.54,1.57h0Zm14.67-1.55h-3.09V307.17h3.09v21.62h0Zm-14.67-5.41h0.77a0.77,0.77,0,1,0,0-1.54h-0.77v-1.54h0.77a0.77,0.77,0,1,0,0-1.54h-0.77v-1.54h0.77a0.77,0.77,0,1,0,0-1.54h-0.77v-1.54h0.77a0.77,0.77,0,1,0,0-1.54h-0.77V311h0.77a0.77,0.77,0,1,0,0-1.54h-0.77v-2.32h10v21.6h-10v-2.31h0.77a0.77,0.77,0,1,0,0-1.54h-0.77v-1.54Z" transform="translate(0 0)"/><path class="cls-4" d="M155.48,307.17L144,308.7l-11.48-1.53a0.76,0.76,0,0,0-.61.19,0.77,0.77,0,0,0-.26.58v18.53a0.77,0.77,0,0,0,.67.77l11.58,1.54h0.2l11.58-1.54a0.78,0.78,0,0,0,.67-0.77V307.94a0.76,0.76,0,0,0-.26-0.58,0.8,0.8,0,0,0-.61-0.19h0Zm-22.3,1.65,10,1.34v17l-10-1.34v-17h0Zm21.63,17-10,1.34v-17l10-1.34v17h0Z" transform="translate(0 0)"/><path class="cls-4" d="M135.4,312.57l6.18,0.77h0.1a0.77,0.77,0,0,0,.1-1.54l-6.18-.77a0.77,0.77,0,1,0-.19,1.53h0Z" transform="translate(0 0)"/><path class="cls-4" d="M141.78,315.67l-6.18-.77a0.77,0.77,0,1,0-.19,1.52l6.18,0.77h0.1a0.77,0.77,0,0,0,.77-0.68,0.79,0.79,0,0,0-.68-0.85h0Z" transform="translate(0 0)"/><path class="cls-4" d="M141.78,319.53l-6.18-.77a0.77,0.77,0,0,0-.19,1.53l6.18,0.77,0.1,0a0.77,0.77,0,0,0,.77-0.69,0.79,0.79,0,0,0-.68-0.86h0Z" transform="translate(0 0)"/><path class="cls-4" d="M141.78,323.39l-6.18-.77a0.77,0.77,0,1,0-.19,1.53l6.18,0.77h0.1a0.77,0.77,0,0,0,.77-0.68,0.79,0.79,0,0,0-.68-0.86h0Z" transform="translate(0 0)"/><path class="cls-4" d="M146.31,313.35h0.1l6.18-.77a0.77,0.77,0,1,0-.19-1.53l-6.18.77a0.77,0.77,0,0,0,.09,1.54h0Z" transform="translate(0 0)"/><path class="cls-4" d="M146.31,317.21h0.1l6.18-.77a0.77,0.77,0,1,0-.19-1.52l-6.18.77a0.77,0.77,0,0,0,.09,1.53h0Z" transform="translate(0 0)"/><path class="cls-4" d="M146.31,321.07l0.1,0,6.18-.77a0.77,0.77,0,1,0-.19-1.53l-6.18.77a0.77,0.77,0,0,0-.67.85,0.78,0.78,0,0,0,.76.7h0Z" transform="translate(0 0)"/><path class="cls-4" d="M152.4,322.62l-6.18.77a0.77,0.77,0,0,0,.09,1.54h0.1l6.18-.77a0.78,0.78,0,0,0,.67-0.86,0.79,0.79,0,0,0-.87-0.67h0Z" transform="translate(0 0)"/><path class="cls-4" d="M177.24,321.07h2.53l0.45,1.34-2,2a0.77,0.77,0,0,0,0,1.09l3.09,3.1a0.77,0.77,0,0,0,1.09,0l2-2,1.33,0.44v2.53a0.77,0.77,0,0,0,.77.77h4.63a0.77,0.77,0,0,0,.77-0.77V327l1.34-.44,2,2a0.78,0.78,0,0,0,1.09,0l3.09-3.1a0.78,0.78,0,0,0,0-1.09l-2-2,0.45-1.34h2.53a0.78,0.78,0,0,0,.77-0.77v-4.63a0.77,0.77,0,0,0-.77-0.77h-2.53l-0.45-1.34,2-2a0.78,0.78,0,0,0,0-1.09l-3.09-3.1a0.77,0.77,0,0,0-1.09,0l-2,2-1.34-.45v-2.53a0.77,0.77,0,0,0-.77-0.77h-4.63a0.77,0.77,0,0,0-.77.77v2.53l-1.33.45-2-2a0.77,0.77,0,0,0-1.09,0l-3.09,3.1a0.77,0.77,0,0,0,0,1.09l2,2-0.45,1.34h-2.53a0.78,0.78,0,0,0-.77.77v4.63a0.77,0.77,0,0,0,.77.77h0Zm0.77-4.63h2.32a0.78,0.78,0,0,0,.73-0.52l0.77-2.32a0.77,0.77,0,0,0-.19-0.79L179.88,311l2-2,1.77,1.77a0.78,0.78,0,0,0,.79.19l2.32-.77a0.77,0.77,0,0,0,.53-0.73v-2.32h3.09v2.32a0.76,0.76,0,0,0,.53.73l2.32,0.77a0.77,0.77,0,0,0,.79-0.19l1.77-1.77,2,2L196,312.81a0.77,0.77,0,0,0-.18.79l0.77,2.32a0.77,0.77,0,0,0,.73.52h2.32v3.1h-2.32a0.78,0.78,0,0,0-.73.52l-0.77,2.32a0.77,0.77,0,0,0,.18.79l1.77,1.77-2,2L194,325.16a0.78,0.78,0,0,0-.79-0.19l-2.32.77a0.77,0.77,0,0,0-.53.73v2.32h-3.09v-2.32a0.76,0.76,0,0,0-.53-0.73l-2.32-.77a0.77,0.77,0,0,0-.79.19l-1.77,1.77-2-2,1.77-1.77a0.77,0.77,0,0,0,.19-0.79l-0.77-2.32a0.77,0.77,0,0,0-.73-0.52H178v-3.1h0Z" transform="translate(0 0)"/><path class="cls-4" d="M188.82,321.07a3.09,3.09,0,1,0-3.09-3.1,3.1,3.1,0,0,0,3.09,3.1h0Zm0-4.63a1.55,1.55,0,1,1-1.54,1.56,1.55,1.55,0,0,1,1.54-1.56h0Z" transform="translate(0 0)"/><path class="cls-4" d="M12.6,314.5a3.09,3.09,0,1,0-3.09,3.09,3.09,3.09,0,0,0,3.09-3.09h0ZM8,314.5A1.55,1.55,0,1,1,9.51,316,1.55,1.55,0,0,1,8,314.5H8Z" transform="translate(0 0)"/><path class="cls-4" d="M9.5,330.33a0.77,0.77,0,0,0,.58-0.26c0.34-.4,8.34-9.53,8.32-15.56a8.88,8.88,0,1,0-17.76,0c0,6,7.95,15.17,8.29,15.56a0.77,0.77,0,0,0,.58.25h0Zm0-23.16a7.38,7.38,0,0,1,7.34,7.35c0,4.56-5.51,11.63-7.35,13.85-1.83-2.22-7.33-9.28-7.33-13.85a7.35,7.35,0,0,1,7.34-7.35h0Z" transform="translate(0 0)"/><path class="cls-4" d="M110.94,360.55H86a0.83,0.83,0,0,0-.83.83v15a0.83,0.83,0,0,0,.83.83h25a0.83,0.83,0,0,0,.83-0.83v-15a0.82,0.82,0,0,0-.83-0.83h0Zm-2.66,1.67-9.81,6.09-9.81-6.09h19.63ZM86.81,375.53V363l11.65,7.23L110.11,363v12.49H86.81Z" transform="translate(0 0)"/><path class="cls-4" d="M143.79,365.54a0.83,0.83,0,0,0-.83.83v11.3l-1.91-1.91a0.83,0.83,0,1,0-1.18,1.18l3.33,3.32a0.83,0.83,0,0,0,1.18,0l3.33-3.32a0.83,0.83,0,1,0-1.18-1.18l-1.91,1.91v-11.3a0.86,0.86,0,0,0-.83-0.82h0Z" transform="translate(0 0)"/><path class="cls-4" d="M156.27,357.23h-25a0.83,0.83,0,0,0-.83.83v15a0.83,0.83,0,0,0,.83.83h9.15a0.83,0.83,0,1,0,0-1.66h-8.32V358.89h23.3V372.2h-8.32a0.83,0.83,0,1,0,0,1.66h9.15a0.83,0.83,0,0,0,.83-0.83v-15a0.83,0.83,0,0,0-.83-0.82h0Z" transform="translate(0 0)"/><path class="cls-4" d="M13.31,355.56a13.31,13.31,0,1,0,9.41,3.9,13.24,13.24,0,0,0-9.41-3.9h0Zm8.24,21.55A11.64,11.64,0,1,1,25,368.88a11.58,11.58,0,0,1-3.41,8.23h0Z" transform="translate(0 0)"/><path class="cls-4" d="M17.41,368.56l-3.33-8.32a0.83,0.83,0,0,0-1.54,0l-3.33,8.32a0.83,0.83,0,0,0,0,.62h0l3.33,8.32a0.83,0.83,0,0,0,1.54,0l3.33-8.32h0a0.84,0.84,0,0,0,0-.62h0Zm-4.1-5.77,2.1,5.25h-4.2l2.1-5.25h0Zm0,12.16-2.1-5.25h4.2L13.31,375h0Z" transform="translate(0 0)"/><path class="cls-4" d="M41.16,378h5v3.32a0.83,0.83,0,0,0,.83.83H60.3a0.83,0.83,0,0,0,.83-0.83V378h5a0.83,0.83,0,0,0,.83-0.83V363.88a0.83,0.83,0,0,0-.83-0.83h-5v-6.66a0.83,0.83,0,0,0-.83-0.83H47a0.83,0.83,0,0,0-.83.83V363h-5a0.83,0.83,0,0,0-.83.83v13.31a0.83,0.83,0,0,0,.83.83h0Zm18.3,2.5H47.81v-8.32H59.46v8.32h0Zm-11.65-23.3H59.46V363H47.81v-5.82h0ZM42,364.71H65.29v11.65H61.13v-5a0.83,0.83,0,0,0-.83-0.83H47a0.83,0.83,0,0,0-.83.83v5H42V364.71h0Z" transform="translate(0 0)"/><path class="cls-4" d="M45.07,366.21a0.85,0.85,0,0,0-1.17,0,0.82,0.82,0,0,0-.25.59,0.83,0.83,0,1,0,1.66,0,0.79,0.79,0,0,0-.24-0.58h0Z" transform="translate(0 0)"/><path class="cls-4" d="M47,367.62a0.84,0.84,0,0,0,.83-0.83,0.84,0.84,0,0,0-.25-0.59,0.85,0.85,0,0,0-1.17,0,0.81,0.81,0,0,0-.25.59,0.83,0.83,0,0,0,.25.59,0.81,0.81,0,0,0,.59.24h0Z" transform="translate(0 0)"/><path class="cls-4" d="M57.8,373.86H49.48a0.83,0.83,0,0,0,0,1.66H57.8a0.83,0.83,0,1,0,0-1.66h0Z" transform="translate(0 0)"/><path class="cls-4" d="M57.8,377.19H49.48a0.83,0.83,0,0,0,0,1.67H57.8a0.83,0.83,0,1,0,0-1.66h0Z" transform="translate(0 0)"/>
<polygon class="cls-2" points="12.78 560.58 20.05 565.31 12.78 570.04 12.78 560.58"/><path class="cls-4" d="M53,577.38a15.12,15.12,0,1,1,21.39,0,15.14,15.14,0,0,1-21.39,0h0Zm19.44-19.44a12.37,12.37,0,1,0,0,17.5,12.39,12.39,0,0,0,0-17.5h0Z" transform="translate(0 0)"/>
<polygon class="cls-4" points="61.33 561.96 68.6 566.68 61.33 571.41 61.33 561.96"/>
<polygon class="cls-7" points="369.91 113.84 387.82 124.29 369.91 134.74 369.91 113.84"/><rect class="cls-7" x="418.15" y="116.83" width="3.65" height="16.42"/><path d="M453.18,129.5h3.59l5.6,5.6a0.64,0.64,0,0,0,.7.14,0.66,0.66,0,0,0,.4-0.59V115.36a0.63,0.63,0,0,0-.4-0.59,0.64,0.64,0,0,0-.7.14l-5.6,5.59h-3.59a0.64,0.64,0,0,0-.64.64v7.71a0.64,0.64,0,0,0,.64.63h0Zm0.64-7.71H457a0.65,0.65,0,0,0,.46-0.19l4.69-4.69v16.17l-4.69-4.69a0.64,0.64,0,0,0-.46-0.19h-3.21v-6.43Z" transform="translate(0 0)"/><path d="M464.93,128.35a0.64,0.64,0,0,0,.91,0l2.44-2.44,2.44,2.44a0.64,0.64,0,0,0,.91-0.91L469.19,125l2.44-2.44a0.64,0.64,0,1,0-.91-0.91l-2.44,2.44-2.44-2.44a0.64,0.64,0,0,0-.91.91l2.44,2.44-2.44,2.44a0.65,0.65,0,0,0,0,.91h0Z" transform="translate(0 0)"/><path d="M500.73,129.5h3.6l5.59,5.6a0.64,0.64,0,0,0,1.1-.45V115.36a0.63,0.63,0,0,0-.4-0.59,0.64,0.64,0,0,0-.7.14l-5.59,5.59h-3.6a0.65,0.65,0,0,0-.65.64v7.71a0.62,0.62,0,0,0,.63.63h0Zm0.64-7.71h3.21a0.64,0.64,0,0,0,.45-0.19l4.69-4.69v16.17L505,128.41a0.64,0.64,0,0,0-.45-0.19h-3.21v-6.43Z" transform="translate(0 0)"/><path d="M512.94,127.57a0.64,0.64,0,1,0,0,1.29,3.86,3.86,0,0,0,0-7.71,0.64,0.64,0,1,0,0,1.29,2.57,2.57,0,0,1,0,5.15h0Z" transform="translate(0 0)"/><path d="M545.39,129.5H549l5.6,5.6a0.64,0.64,0,0,0,.45.19,0.63,0.63,0,0,0,.24,0,0.66,0.66,0,0,0,.4-0.59V115.36a0.64,0.64,0,0,0-.4-0.59,0.64,0.64,0,0,0-.7.14L549,120.5h-3.59a0.64,0.64,0,0,0-.64.64v7.71a0.65,0.65,0,0,0,.65.63h0Zm0.64-7.71h3.21a0.64,0.64,0,0,0,.45-0.19l4.69-4.69v16.17l-4.69-4.69a0.64,0.64,0,0,0-.45-0.19H546v-6.43Z" transform="translate(0 0)"/><path d="M557.6,127.57a0.64,0.64,0,0,0,0,1.29,3.86,3.86,0,1,0,0-7.71,0.64,0.64,0,0,0,0,1.29,2.57,2.57,0,0,1,0,5.15h0Z" transform="translate(0 0)"/><path d="M557.6,132.07a7.07,7.07,0,1,0,0-14.14,0.64,0.64,0,0,0,0,1.29,5.78,5.78,0,1,1,0,11.57,0.65,0.65,0,0,0,0,1.3v0Z" transform="translate(0 0)"/><path class="cls-4" d="M550.09,73.53a7.6,7.6,0,1,1,7.59,7.59,7.6,7.6,0,0,1-7.59-7.59h0Zm1.71,0a5.89,5.89,0,1,0,5.88-5.88,5.9,5.9,0,0,0-5.88,5.88h0Z" transform="translate(0 0)"/><rect class="cls-4" x="546.14" y="80.28" width="7.62" height="1.9" transform="translate(103.22 412.1) rotate(-44.93)"/>
<polygon class="cls-21" points="632.89 236.42 478.75 236.42 466.75 280.42 632.89 280.42 632.89 236.42"/>
<polygon class="cls-21" points="466.75 398.04 616.58 398.04 620.77 390.23 466.75 390.23 466.75 398.04"/>
<polygon class="cls-22" points="614.25 303.75 478.75 303.75 466.75 347.75 614.25 347.75 614.25 303.75"/><rect class="cls-4" x="166.68" y="496.32" width="13.61" height="2.63"/><rect class="cls-4" x="177.66" y="496.32" width="2.63" height="13.6"/><rect class="cls-4" x="166.65" y="501.93" width="13.6" height="2.62" transform="translate(-305.07 270.09) rotate(-45.01)"/><rect class="cls-23" x="205.85" y="498.9" width="8.72" height="2.16" transform="translate(-291.96 295.06) rotate(-45)"/><rect class="cls-23" x="213.79" y="495.58" width="2.16" height="8.72" transform="translate(-290.58 298.36) rotate(-45)"/><rect class="cls-23" x="211.5" y="498.46" width="2.16" height="11.19"/><rect class="cls-2" x="117.42" y="496.32" width="13.6" height="2.63"/><rect class="cls-2" x="128.4" y="496.32" width="2.63" height="13.6"/><rect class="cls-4" x="64.19" y="491.41" width="2.63" height="13.6" transform="translate(-333.2 192.36) rotate(-45.02)"/><rect class="cls-4" x="58.65" y="504.62" width="13.61" height="2.63" transform="translate(-338.59 194.49) rotate(-45)"/><path class="cls-24" d="M706.62,0.66l1,0.15-8.46,30.86-1-.15,8.46-30.85h0Z" transform="translate(0 0)"/><line class="cls-25" x1="422.27" y1="580.35" x2="473.88" y2="452.22"/><line class="cls-25" x1="425.78" y1="580.35" x2="477.39" y2="452.22"/><line class="cls-25" x1="429.29" y1="580.34" x2="480.9" y2="452.22"/><line class="cls-25" x1="432.8" y1="580.35" x2="484.41" y2="452.22"/><line class="cls-25" x1="436.31" y1="580.35" x2="487.92" y2="452.22"/><line class="cls-25" x1="439.82" y1="580.35" x2="491.43" y2="452.22"/><line class="cls-25" x1="443.33" y1="580.35" x2="494.94" y2="452.22"/><line class="cls-25" x1="446.84" y1="580.35" x2="498.45" y2="452.22"/><line class="cls-25" x1="450.35" y1="580.35" x2="501.96" y2="452.22"/><line class="cls-25" x1="453.86" y1="580.35" x2="505.47" y2="452.22"/><line class="cls-25" x1="457.37" y1="580.35" x2="508.98" y2="452.22"/><line class="cls-25" x1="460.88" y1="580.35" x2="512.49" y2="452.22"/><line class="cls-25" x1="464.4" y1="580.35" x2="516" y2="452.22"/><line class="cls-25" x1="467.9" y1="580.35" x2="519.51" y2="452.22"/><line class="cls-25" x1="471.41" y1="580.35" x2="523.02" y2="452.22"/><line class="cls-25" x1="474.92" y1="580.35" x2="526.53" y2="452.22"/><line class="cls-25" x1="478.43" y1="580.35" x2="530.04" y2="452.22"/><line class="cls-25" x1="481.94" y1="580.35" x2="533.55" y2="452.22"/><line class="cls-25" x1="485.45" y1="580.35" x2="537.06" y2="452.22"/><line class="cls-25" x1="488.96" y1="580.35" x2="540.57" y2="452.22"/><line class="cls-25" x1="492.48" y1="580.35" x2="544.08" y2="452.22"/><line class="cls-25" x1="495.98" y1="580.35" x2="547.59" y2="452.22"/><line class="cls-25" x1="499.5" y1="580.35" x2="551.1" y2="452.22"/><line class="cls-25" x1="503" y1="580.35" x2="554.61" y2="452.22"/><line class="cls-25" x1="506.52" y1="580.35" x2="558.12" y2="452.22"/><line class="cls-25" x1="510.02" y1="580.35" x2="561.64" y2="452.22"/><line class="cls-25" x1="513.54" y1="580.35" x2="565.14" y2="452.22"/><line class="cls-25" x1="517.05" y1="580.35" x2="568.66" y2="452.22"/><line class="cls-25" x1="520.56" y1="580.35" x2="572.16" y2="452.22"/><line class="cls-25" x1="524.07" y1="580.35" x2="575.68" y2="452.22"/><line class="cls-25" x1="527.58" y1="580.35" x2="579.19" y2="452.22"/><line class="cls-25" x1="531.09" y1="580.35" x2="582.7" y2="452.22"/><line class="cls-25" x1="534.6" y1="580.35" x2="586.21" y2="452.22"/><line class="cls-25" x1="538.11" y1="580.35" x2="589.72" y2="452.22"/><line class="cls-25" x1="541.62" y1="580.35" x2="593.23" y2="452.22"/><line class="cls-25" x1="545.13" y1="580.35" x2="596.74" y2="452.22"/><line class="cls-25" x1="548.64" y1="580.35" x2="600.25" y2="452.22"/><line class="cls-25" x1="552.15" y1="580.35" x2="603.76" y2="452.22"/><line class="cls-25" x1="555.66" y1="580.35" x2="607.27" y2="452.22"/><line class="cls-25" x1="559.17" y1="580.35" x2="610.78" y2="452.22"/><line class="cls-25" x1="562.68" y1="580.35" x2="614.29" y2="452.22"/><line class="cls-25" x1="566.19" y1="580.35" x2="617.8" y2="452.22"/><line class="cls-25" x1="569.7" y1="580.35" x2="621.31" y2="452.22"/><line class="cls-25" x1="573.21" y1="580.35" x2="624.82" y2="452.22"/><line class="cls-25" x1="576.72" y1="580.35" x2="628.33" y2="452.22"/><line class="cls-25" x1="580.23" y1="580.35" x2="631.84" y2="452.22"/><line class="cls-25" x1="583.74" y1="580.35" x2="635.35" y2="452.22"/><line class="cls-25" x1="587.25" y1="580.35" x2="638.86" y2="452.22"/><line class="cls-25" x1="590.76" y1="580.35" x2="642.37" y2="452.22"/><line class="cls-25" x1="594.27" y1="580.35" x2="645.88" y2="452.22"/><line class="cls-25" x1="597.78" y1="580.35" x2="649.39" y2="452.22"/><line class="cls-25" x1="601.29" y1="580.35" x2="652.9" y2="452.22"/><line class="cls-25" x1="604.8" y1="580.35" x2="656.41" y2="452.22"/><line class="cls-25" x1="608.31" y1="580.35" x2="659.92" y2="452.22"/><line class="cls-25" x1="611.82" y1="580.35" x2="663.43" y2="452.22"/><line class="cls-25" x1="615.33" y1="580.35" x2="666.94" y2="452.22"/><line class="cls-25" x1="618.84" y1="580.35" x2="670.45" y2="452.22"/><line class="cls-25" x1="622.35" y1="580.35" x2="673.96" y2="452.22"/><line class="cls-25" x1="625.86" y1="580.35" x2="677.47" y2="452.22"/><line class="cls-25" x1="629.37" y1="580.35" x2="680.98" y2="452.22"/><line class="cls-25" x1="632.88" y1="580.35" x2="684.49" y2="452.22"/><line class="cls-25" x1="636.39" y1="580.35" x2="688" y2="452.22"/><line class="cls-25" x1="639.9" y1="580.35" x2="691.51" y2="452.22"/><line class="cls-25" x1="643.41" y1="580.35" x2="695.02" y2="452.22"/><line class="cls-25" x1="646.92" y1="580.35" x2="698.53" y2="452.22"/><line class="cls-25" x1="650.43" y1="580.35" x2="702.04" y2="452.22"/><line class="cls-25" x1="653.94" y1="580.35" x2="705.55" y2="452.22"/><line class="cls-25" x1="657.45" y1="580.35" x2="709.06" y2="452.22"/><line class="cls-25" x1="660.96" y1="580.35" x2="712.57" y2="452.22"/><line class="cls-25" x1="664.47" y1="580.35" x2="716.08" y2="452.22"/><line class="cls-25" x1="667.98" y1="580.35" x2="719.59" y2="452.22"/><line class="cls-25" x1="671.49" y1="580.35" x2="723.1" y2="452.22"/>
<polygon class="cls-4" points="482.08 8.72 482.08 8.72 487.96 2.52 486.3 0.94 480.5 7.06 474.7 0.94 473.04 2.52 478.92 8.72 478.92 8.72 478.92 8.72 473.04 14.92 474.7 16.5 480.5 10.39 486.3 16.5 487.96 14.92 482.07 8.72 482.08 8.72"/>
<polygon class="cls-26" points="632.89 236.42 590.98 236.42 576.91 280.42 632.89 280.42 632.89 236.42"/>
<polygon class="cls-27" points="593.3 236.42 590.98 236.42 576.91 280.42 579.28 280.42 593.3 236.42"/><rect class="cls-22" x="436.35" y="76.83" width="25.9" height="1.49" transform="translate(76.74 340.42) rotate(-45)"/><rect class="cls-22" x="448.55" y="64.61" width="1.49" height="25.9" transform="translate(76.75 340.41) rotate(-45)"/><path class="cls-4" d="M384.87,256.36A9.51,9.51,0,0,1,383,257a7.79,7.79,0,0,1-1.78.19,4.86,4.86,0,0,1-1.7-.27,4.23,4.23,0,0,1-1.42-.79,2.81,2.81,0,0,1-.81-1.08,4.71,4.71,0,0,1-.23-1.67v-5.57h-2.15V245.6a5.46,5.46,0,0,0,1.78-.87,4.24,4.24,0,0,0,1.07-1.37,6.16,6.16,0,0,0,.55-2h2.25V245h3.66v2.84h-3.66v4.07a7,7,0,0,0,.08,1.71,1.49,1.49,0,0,0,.6.69,2.28,2.28,0,0,0,1.2.32,4.3,4.3,0,0,0,2.39-.79v2.51h0Z" transform="translate(0 0)"/><path class="cls-18" d="M367.15,196.71v25.52h25.52V196.71H367.15Zm17.72,19.78a9.5,9.5,0,0,1-1.83.67,7.79,7.79,0,0,1-1.78.19,4.85,4.85,0,0,1-1.7-.27,4.22,4.22,0,0,1-1.42-.79,2.8,2.8,0,0,1-.81-1.08,4.71,4.71,0,0,1-.23-1.67V208h-2.15v-2.25a5.45,5.45,0,0,0,1.78-.87,4.25,4.25,0,0,0,1.07-1.36,6.16,6.16,0,0,0,.55-2h2.25v3.68h3.66V208h-3.66v4.08a7,7,0,0,0,.08,1.71,1.49,1.49,0,0,0,.6.69,2.28,2.28,0,0,0,1.2.32,4.3,4.3,0,0,0,2.39-.79v2.51h0Z" transform="translate(0 0)"/><path class="cls-4" d="M277.83,314.35l-0.09-.93A10,10,0,0,1,275,313a13.71,13.71,0,0,1-2.1,1.44,18.25,18.25,0,0,0,4.93-.07h0Zm-6.18-4a9.19,9.19,0,0,1-3.77.89,14.26,14.26,0,0,0,1,1.18,13.54,13.54,0,0,0,3.35-1.23,4.14,4.14,0,0,1-.54-0.84h0Zm0.42-1.16a0.49,0.49,0,0,1,.3.34c0,0.11.73,2.76,5.28,2.95v0a2.75,2.75,0,0,1-1.41-2.86c0.19-2.15-1.41-3.49-3.23-2.34a8,8,0,0,1-5,1.37c-1.19-.19-2.14.17-1.26,1.19l0.38,0.46a8.31,8.31,0,0,0,4.47-1,0.5,0.5,0,0,1,.46-0.05h0Zm0.83,2.72a14.08,14.08,0,0,1-3.2,1.3,6,6,0,0,0,1.72.9,13.66,13.66,0,0,0,2.54-1.52,5.09,5.09,0,0,1-1.06-.68h0Zm12,0.69a13.68,13.68,0,0,0,2.54,1.52,6,6,0,0,0,1.72-.9,14.16,14.16,0,0,1-3.2-1.3,6.07,6.07,0,0,1-1.06.68h0Zm1.78-1.41a13.45,13.45,0,0,0,3.35,1.23,13.94,13.94,0,0,0,1-1.18,9.19,9.19,0,0,1-3.77-.89,5.27,5.27,0,0,1-.54.84h0Zm4.15-2.55a8,8,0,0,1-5-1.37c-1.82-1.15-3.41.19-3.23,2.34a2.75,2.75,0,0,1-1.41,2.86v0c4.55-.19,5.25-2.83,5.28-2.95a0.48,0.48,0,0,1,.75-0.29,8.31,8.31,0,0,0,4.47,1l0.37-.46c0.87-1-.07-1.39-1.26-1.2h0Zm-9.71,4.82-0.09.93a18.31,18.31,0,0,0,4.94.08,13.54,13.54,0,0,1-2.1-1.44,10.73,10.73,0,0,1-2.75.43h0Zm1.65,2.8a1.1,1.1,0,1,0-.73,2,1.82,1.82,0,0,0,.8.11c-0.08.75-.59,1.84-2.57,2.54l-0.44.16,0.24-10.33a2.08,2.08,0,1,0-1.42,0L278.9,321l-0.55-.2c-2-.7-2.49-1.79-2.57-2.54a1.82,1.82,0,0,0,.8-0.11,1.1,1.1,0,1,0-.73-2,1.59,1.59,0,0,0-1,.94c-0.91,1.43.14,3.65,4.07,5.09l0.08,3.66c-1.36-.67-1.85-1.3-1.85-1.84a2.1,2.1,0,0,1,1-1.19l-1-.48a1.65,1.65,0,0,0-.67,1.56c0,1.15,1.16,2,2.53,2.61L279.1,330a2.35,2.35,0,0,1-1.17-1.66,1.58,1.58,0,0,1,.61-1.09L278,327a1.68,1.68,0,0,0-.48,1.22,1.85,1.85,0,0,0,1.61,1.86l0,2.12a0.21,0.21,0,0,0,.43,0l0-2.11a1.85,1.85,0,0,0,1.65-1.87,1.94,1.94,0,0,0-1.16-1.76c3.31-1.77,2.61-3.38.52-4.59,3.14-1.42,4-3.39,3.12-4.7a1.52,1.52,0,0,0-1-1h0Zm-1.94,12.15a2.39,2.39,0,0,1-1.2,1.69l0.07-3.16a2,2,0,0,1,1.13,1.47h0ZM279.72,326l0.08-3.4c3.38,1.32.93,2.88-.08,3.4h0Z" transform="translate(0 0)"/><circle class="cls-28" cx="391.03" cy="35.32" r="7.95"/><circle class="cls-29" cx="391.03" cy="10.56" r="7.95"/><circle class="cls-28" cx="415.26" cy="35.32" r="7.95"/><circle class="cls-29" cx="415.26" cy="10.56" r="7.95"/><circle class="cls-30" cx="415.26" cy="10.56" r="2.79"/><circle class="cls-31" cx="415.26" cy="35.32" r="2.79"/><text/><path class="cls-18" d="M426.25,213.7L411,205.19v17h30.57v-17Zm-15.28-17v4.25l15.28,8.51,15.28-8.51v-4.25H411Z" transform="translate(0 0)"/><path class="cls-21" d="M426.25,253.54L411,245v17h30.57V245Zm-15.28-17v4.25l15.28,8.51,15.28-8.51v-4.25H411Z" transform="translate(0 0)"/><g class="cls-32"><path class="cls-33" d="M119.78,632.86a6.07,6.07,0,1,0,6.08-6.07,6.08,6.08,0,0,0-6.08,6.07h0Zm-1.76,0a7.83,7.83,0,1,1,7.83,7.83,7.84,7.84,0,0,1-7.83-7.83" transform="translate(0 0)"/></g><rect class="cls-33" x="113.94" y="639.73" width="7.86" height="1.97" transform="translate(-418.26 270.62) rotate(-44.96)"/><g class="cls-34"><circle class="cls-35" cx="124.87" cy="633.13" r="20.78"/></g><rect class="cls-36" x="38.96" y="492.94" width="3.63" height="12.6" transform="translate(-341.12 175.11) rotate(-45.01)"/><rect class="cls-36" x="34.53" y="503.82" width="12.61" height="3.62" transform="translate(-345.61 177.01) rotate(-45.01)"/><path class="cls-4" d="M205.65,658.33A23.65,23.65,0,1,0,182,634.68a23.65,23.65,0,0,0,23.65,23.65" transform="translate(0 0)"/>
<polygon class="cls-33" points="207.53 634.9 214.83 623.75 211.91 623.75 206.02 633.08 200.17 623.75 197.14 623.75 204.44 635 196.61 647.31 199.51 647.31 205.95 636.95 212.28 647.31 215.39 647.31 207.53 634.9"/><path class="cls-4" d="M285.46,650a14,14,0,1,0-14-14,14,14,0,0,0,14,14" transform="translate(0 0)"/><path class="cls-33" d="M291.42,643.47h-1.84l-3.74-6.12L282,643.47h-1.71L285,636.2l-4.31-6.64h1.79l3.45,5.51,3.48-5.51h1.72l-4.31,6.58Z" transform="translate(0 0)"/><circle class="cls-37" cx="285.46" cy="636.01" r="13.97"/></svg>