<svg id="Layer_1" data-name="Layer 1" xmlns="http://www.w3.org/2000/svg" viewBox="0 0 323.4 57.75"><defs><style>.cls-1{fill:#4c3281;}</style></defs><title>Columns_Logo</title><path class="cls-1" d="M173.56,36.13c0,5.71-1.81,11.27-7.64,13h0a14.28,14.28,0,0,1-4,.53,16.82,16.82,0,0,1-4.39-.54h0c-5.58-1.51-8.3-6.1-8.3-12.47V30.58h0v-28H141v28h0v7a21.62,21.62,0,0,0,2.84,11.52h0c3.37,5.46,9.6,8.19,18,8.19,7.62,0,13.66-2.84,17.07-8.18h0a21.38,21.38,0,0,0,3-11.67V30.58h-8.43v5.55Z" transform="translate(-1.3 -0.63)"/><rect class="cls-1" x="172.26" y="1.98" width="8.43" height="27.97"/><polygon class="cls-1" points="115.55 48.48 115.55 48.48 115.55 29.95 115.55 2.09 107.18 2.09 107.18 29.95 107.18 48.48 107.17 48.48 107.17 55.88 139.32 55.88 139.32 48.51 115.55 48.51 115.55 48.48"/><path class="cls-1" d="M78.17,1.74A28.43,28.43,0,0,0,58.31,9.68a27.3,27.3,0,0,0-8.26,20q0,0.43,0,.86h0a27,27,0,0,0,7.69,18.53h0l0.56,0.57a28.64,28.64,0,0,0,40.32-.57h0a27.38,27.38,0,0,0,1.9-2.17,27,27,0,0,0,5.74-16.36H97.64c-0.32,9-5.6,16-13,18.53h0a20,20,0,0,1-12.87,0h0c-7.46-2.58-12.8-9.61-13.12-18.53h0c0-.28,0-0.57,0-0.86,0-11.83,8.66-20.45,19.57-20.45s19.49,8.55,19.49,20.45c0,0.29,0,.57,0,0.86h8.63c0-.28,0-0.57,0-0.86A27.45,27.45,0,0,0,98,9.76,28.31,28.31,0,0,0,78.17,1.74Z" transform="translate(-1.3 -0.63)"/><path class="cls-1" d="M45.64,42c-3.17,3.09-6.65,5.91-10.8,7.13h0a15.7,15.7,0,0,1-4.41.64,23.93,23.93,0,0,1-5.63-.64h0C15.92,47,10.85,39.68,10.41,30.58h0c0-.26,0-0.52,0-0.78C10.18,19.62,17.09,9.64,29.72,9.64c5.72,0,10,1.72,14.81,7.16l6-4.53C48.46,9.64,43.42,1.79,30,1.71,13.69,1.6,1.3,13.45,1.3,29.45q0,0.57,0,1.13h0A26.65,26.65,0,0,0,9.44,49.11h0a27.77,27.77,0,0,0,2.8,2.35,27.26,27.26,0,0,0,16.87,5.73,27.39,27.39,0,0,0,20.41-8.08h0q1.23-1.18,2.46-2.6Z" transform="translate(-1.3 -0.63)"/><path class="cls-1" d="M324.7,42.44a15.37,15.37,0,0,0-5.62-11.87h0a26.45,26.45,0,0,0-7.43-4.42L308.8,25c-7.12-2.89-10-5.3-10-9.74s4.33-6,7.25-5.88a10,10,0,0,1,8.49,5.23L321,10.11a16.18,16.18,0,0,0-14.12-8.56C297,1.43,290.38,7.77,290.38,15.4c0,6.09,2.7,11.6,10.47,15.18h0l0.81,0.36,3.92,1.63c7,3,10.69,4.57,10.69,10,0,3.77-2,5.73-5.17,6.56h0a18.64,18.64,0,0,1-4.92.51,13.61,13.61,0,0,1-3.58-.51h0a13,13,0,0,1-8.18-6.86l-7.18,3.68a19.93,19.93,0,0,0,2,3.17h0c5,6.5,12.91,8.37,17.3,8.37,7.83,0,13.79-3.29,16.53-8.37h0A14,14,0,0,0,324.7,42.44Z" transform="translate(-1.3 -0.63)"/><polygon class="cls-1" points="237.16 29.95 237.16 29.95 237.16 0.33 211.65 29.95 210.79 30.95 209.91 29.95 209.91 29.95 184.15 0.71 184.15 29.95 184.15 29.95 184.15 48.48 184.15 48.48 184.15 55.8 192.25 55.8 192.25 48.48 192.25 48.48 192.25 29.95 192.25 29.95 192.25 21.29 199.7 29.95 199.7 29.95 210.66 42.68 221.71 29.95 229.32 21.19 229.32 29.95 229.32 29.95 229.32 48.48 229.32 48.48 229.32 55.8 237.16 55.8 237.16 48.48 237.16 48.48 237.16 29.95"/><polygon class="cls-1" points="284.8 29.95 276.56 29.95 276.56 37.27 269.65 29.95 241.37 0 241.37 29.95 249.41 29.95 249.41 20.93 258.07 29.95 275.89 48.48 275.89 48.48 284.8 57.75 284.8 48.48 284.8 48.48 284.8 29.95"/><polygon class="cls-1" points="241.37 48.48 241.37 48.48 241.37 55.99 249.41 55.99 249.41 48.48 249.41 48.48 249.41 29.95 241.37 29.95 241.37 48.48"/><rect class="cls-1" x="276.56" y="1.76" width="8.23" height="28.19"/></svg>