<svg id="Layer_1" data-name="Layer 1" xmlns="http://www.w3.org/2000/svg" viewBox="0 0 92.45 26.25"><defs><style>.cls-1{fill:#999;}</style></defs><title>UWAA_Logo</title><path class="cls-1" d="M29.42,1.38V6.11h3.33L29,19.93,24.43,1.38H19.62l-5,18.56L11.21,6.11h3.47V1.38H0.78V6.11H3.86L9.23,27.62h7.46l3.56-13.54,3.39,13.54H31.1L36.76,6.11h3.05V1.38H29.42Z" transform="translate(-0.78 -1.38)"/><path class="cls-1" d="M41.33,25.69c-0.19,0-.22,0-0.26.16l-0.3.92a0.93,0.93,0,0,0-.06.29s0.06,0.1.29,0.13l0.24,0a0.23,0.23,0,0,1,0,.28l-0.93,0c-0.27,0-.46,0-0.82,0a0.21,0.21,0,0,1,0-.28l0.22,0a0.55,0.55,0,0,0,.49-0.4c0.13-.32.28-0.7,0.49-1.28l0.72-1.94a3,3,0,0,0,.31-1,1.61,1.61,0,0,0,.69-0.48,0.17,0.17,0,0,1,.18.16c0.06,0.23.16,0.53,0.36,1.09L44,26.48c0.17,0.48.24,0.66,0.53,0.71l0.3,0a0.24,0.24,0,0,1,0,.28l-1.23,0-1.08,0a0.18,0.18,0,0,1,0-.28l0.26,0c0.18,0,.22-0.09.22-0.13a3.53,3.53,0,0,0-.15-0.54l-0.22-.68c0-.13-0.1-0.14-0.38-0.14H41.33Zm0.85-.42c0.18,0,.22,0,0.16-0.23l-0.21-.65c-0.11-.34-0.21-0.67-0.29-0.84-0.08.18-.21,0.51-0.33,0.88l-0.2.6c-0.07.22,0,.24,0.17,0.24h0.69Z" transform="translate(-0.78 -1.38)"/><path class="cls-1" d="M46.51,27.62a2.77,2.77,0,0,1-1.35-.3A2.57,2.57,0,0,1,44.9,26a0.2,0.2,0,0,1,.3,0,1.71,1.71,0,0,0,1.37,1.25,0.79,0.79,0,0,0,.86-0.81,1.6,1.6,0,0,0-1.09-1.27,1.83,1.83,0,0,1-1.2-1.55A1.59,1.59,0,0,1,47,22.11a3.22,3.22,0,0,1,.91.13l0.27,0.06a3.85,3.85,0,0,1,.14,1.14,0.22,0.22,0,0,1-.31,0,1.28,1.28,0,0,0-1.05-1,0.74,0.74,0,0,0-.81.74,1.16,1.16,0,0,0,.72.91l0.53,0.28A1.82,1.82,0,0,1,48.52,26a1.73,1.73,0,0,1-2,1.62" transform="translate(-0.78 -1.38)"/><path class="cls-1" d="M50.64,27.62a2.79,2.79,0,0,1-1.36-.3A2.58,2.58,0,0,1,49,26a0.2,0.2,0,0,1,.3,0,1.71,1.71,0,0,0,1.37,1.25,0.79,0.79,0,0,0,.86-0.81,1.6,1.6,0,0,0-1.08-1.27,1.83,1.83,0,0,1-1.2-1.55,1.59,1.59,0,0,1,1.85-1.52,3.23,3.23,0,0,1,.91.13l0.27,0.06a3.89,3.89,0,0,1,.14,1.14,0.22,0.22,0,0,1-.31,0,1.28,1.28,0,0,0-1.05-1,0.74,0.74,0,0,0-.81.74,1.16,1.16,0,0,0,.73.91l0.53,0.28A1.82,1.82,0,0,1,52.65,26a1.74,1.74,0,0,1-2,1.62" transform="translate(-0.78 -1.38)"/><path class="cls-1" d="M59,24.84a2.64,2.64,0,0,1-2.88,2.78,2.6,2.6,0,0,1-2.76-2.72,2.74,2.74,0,0,1,2.84-2.8A2.64,2.64,0,0,1,59,24.84m-2.86-2.37c-1,0-1.51.92-1.51,2.25,0,1,.34,2.53,1.64,2.53,1,0,1.45-1,1.45-2.31s-0.6-2.47-1.59-2.47" transform="translate(-0.78 -1.38)"/><path class="cls-1" d="M64.51,22.32a10.52,10.52,0,0,0,.1,1.24,0.22,0.22,0,0,1-.3.06,1.45,1.45,0,0,0-1.5-1.14c-0.88,0-1.83.76-1.83,2.34s0.92,2.44,1.87,2.44A1.73,1.73,0,0,0,64.47,26a0.23,0.23,0,0,1,.3.06,3.56,3.56,0,0,1-.3,1.25,6,6,0,0,1-1.62.3A3.63,3.63,0,0,1,60.71,27a2.5,2.5,0,0,1-1-2.09,2.63,2.63,0,0,1,1-2.11,3.49,3.49,0,0,1,2.21-.71,9.6,9.6,0,0,1,1.64.21" transform="translate(-0.78 -1.38)"/><path class="cls-1" d="M67,26.33c0,0.75,0,.8.41,0.87l0.22,0a0.23,0.23,0,0,1,0,.28l-1.19,0-1.21,0a0.23,0.23,0,0,1,0-.28l0.22,0c0.37-.06.41-0.12,0.41-0.87V23.4c0-.75,0-0.8-0.41-0.87l-0.22,0a0.23,0.23,0,0,1,0-.28l1.21,0,1.2,0a0.23,0.23,0,0,1,0,.28l-0.22,0C67.06,22.6,67,22.65,67,23.4v2.93Z" transform="translate(-0.78 -1.38)"/><path class="cls-1" d="M69.76,25.69c-0.19,0-.22,0-0.26.16l-0.3.92a1,1,0,0,0-.05.29s0.06,0.1.29,0.13l0.24,0a0.23,0.23,0,0,1,0,.28l-0.93,0c-0.27,0-.45,0-0.82,0a0.21,0.21,0,0,1,0-.28l0.21,0a0.55,0.55,0,0,0,.49-0.4c0.14-.32.28-0.7,0.49-1.28l0.72-1.94a3,3,0,0,0,.31-1,1.6,1.6,0,0,0,.69-0.48,0.17,0.17,0,0,1,.18.16c0.06,0.23.16,0.53,0.36,1.09l1.08,3.12c0.17,0.48.24,0.66,0.54,0.71l0.3,0a0.24,0.24,0,0,1,0,.28L72,27.5l-1.08,0a0.18,0.18,0,0,1,0-.28l0.26,0c0.18,0,.21-0.09.21-0.13a3.47,3.47,0,0,0-.15-0.54L71,25.84c0-.13-0.1-0.14-0.38-0.14H69.76Zm0.85-.42c0.18,0,.22,0,0.16-0.23l-0.21-.65c-0.11-.34-0.21-0.67-0.29-0.84-0.08.18-.21,0.51-0.33,0.88l-0.2.6c-0.07.22,0,.24,0.17,0.24h0.69Z" transform="translate(-0.78 -1.38)"/><path class="cls-1" d="M74.63,22.83c0-.19,0-0.23-0.19-0.23h-0.5a1,1,0,0,0-1,.9,0.22,0.22,0,0,1-.29-0.07,9.76,9.76,0,0,0,.26-1.35A0.21,0.21,0,0,1,73,22a0.2,0.2,0,0,1,.11,0c0,0.14.06,0.17,0.67,0.17h3c0.53,0,.65,0,0.72-0.17a0.2,0.2,0,0,1,.1,0,0.16,0.16,0,0,1,.12.06,5.68,5.68,0,0,0-.12,1.37,0.24,0.24,0,0,1-.3,0,0.85,0.85,0,0,0-.84-0.88H76c-0.19,0-.21,0-0.21.23v3.51c0,0.74,0,.81.4,0.85l0.32,0a0.25,0.25,0,0,1,0,.28l-1.27,0-1.35,0a0.22,0.22,0,0,1,0-.28l0.36,0c0.36,0,.41-0.11.41-0.85V22.83Z" transform="translate(-0.78 -1.38)"/><path class="cls-1" d="M79.89,26.33c0,0.75,0,.8.41,0.87l0.22,0a0.23,0.23,0,0,1,0,.28l-1.19,0-1.21,0a0.23,0.23,0,0,1,0-.28l0.22,0c0.37-.06.41-0.12,0.41-0.87V23.4c0-.75,0-0.8-0.41-0.87l-0.22,0a0.23,0.23,0,0,1,0-.28l1.21,0,1.2,0a0.23,0.23,0,0,1,0,.28l-0.22,0c-0.37.07-.41,0.12-0.41,0.87v2.93Z" transform="translate(-0.78 -1.38)"/><path class="cls-1" d="M86.87,24.84A2.64,2.64,0,0,1,84,27.62a2.6,2.6,0,0,1-2.76-2.72,2.74,2.74,0,0,1,2.84-2.8,2.64,2.64,0,0,1,2.8,2.73M84,22.48c-1,0-1.51.92-1.51,2.25,0,1,.34,2.53,1.64,2.53,1,0,1.45-1,1.45-2.31S85,22.48,84,22.48" transform="translate(-0.78 -1.38)"/><path class="cls-1" d="M92.49,26.14c0,0.52,0,1,0,1.28a0.62,0.62,0,0,1-.47.18s-0.27-.41-0.65-0.87l-1.84-2.28a11,11,0,0,0-.87-1,1.44,1.44,0,0,0,0,.51v1.54A5.52,5.52,0,0,0,88.76,27a0.54,0.54,0,0,0,.46.25l0.22,0a0.25,0.25,0,0,1,0,.28l-1.07,0-0.89,0a0.25,0.25,0,0,1,0-.28l0.14,0A0.5,0.5,0,0,0,88.06,27a5.65,5.65,0,0,0,.11-1.46v-2a1.84,1.84,0,0,0-.06-0.68,0.51,0.51,0,0,0-.46-0.27l-0.22,0a0.21,0.21,0,0,1,0-.28l1.1,0c0.27,0,.5,0,0.67,0A7,7,0,0,0,90.55,24l0.67,0.79c0.35,0.41.58,0.69,0.76,0.88a1.11,1.11,0,0,0,0-.36v-1.1a5.55,5.55,0,0,0-.12-1.46,0.52,0.52,0,0,0-.46-0.25l-0.22,0a0.25,0.25,0,0,1,0-.28l1.07,0,0.9,0a0.26,0.26,0,0,1,0,.28l-0.15,0a0.49,0.49,0,0,0-.43.26,5.62,5.62,0,0,0-.12,1.46v1.9Z" transform="translate(-0.78 -1.38)"/><path class="cls-1" d="M43.85,16.89c-0.41,0-.46,0-0.56.34l-0.63,2a2,2,0,0,0-.12.62c0,0.1.14,0.2,0.62,0.29l0.51,0.09a0.49,0.49,0,0,1,0,.6c-0.6,0-1.28,0-2-.05s-1,.05-1.76.05a0.45,0.45,0,0,1-.05-0.6l0.46-.05a1.18,1.18,0,0,0,1-.86c0.29-.68.6-1.51,1.06-2.74l1.54-4.18a6.43,6.43,0,0,0,.67-2.17,3.47,3.47,0,0,0,1.49-1,0.36,0.36,0,0,1,.39.34c0.14,0.49.34,1.13,0.77,2.34l2.33,6.71c0.36,1,.51,1.42,1.15,1.52l0.65,0.1a0.52,0.52,0,0,1,0,.6c-0.82,0-1.75-.05-2.64-0.05s-1.52,0-2.31.05a0.39,0.39,0,0,1,0-.6l0.55-.09c0.39-.07.46-0.19,0.46-0.29a7.13,7.13,0,0,0-.33-1.16L46.59,17.2c-0.09-.27-0.22-0.31-0.82-0.31H43.85ZM45.68,16c0.39,0,.48-0.05.34-0.5L45.58,14.1c-0.24-.74-0.46-1.44-0.62-1.8-0.17.38-.44,1.1-0.7,1.88l-0.43,1.28c-0.15.46-.07,0.51,0.36,0.51h1.49Z" transform="translate(-0.78 -1.38)"/><path class="cls-1" d="M52.2,11.24c0-.68,0-0.87-0.34-1.08L51.57,10a0.41,0.41,0,0,1,0-.51,17.2,17.2,0,0,0,2.62-1,0.38,0.38,0,0,1,.29.12c0,0.7-.05,1.42-0.05,2.5v7.63c0,1.2.07,1.33,0.67,1.4l0.29,0a0.47,0.47,0,0,1,0,.6c-0.57,0-1.28-.05-2.06-0.05s-1.46,0-2.05.05a0.47,0.47,0,0,1,0-.6l0.32,0c0.56-.05.63-0.21,0.63-1.4V11.24Z" transform="translate(-0.78 -1.38)"/><path class="cls-1" d="M63.73,18.5c0,1,.05,1.46.46,1.46a2.29,2.29,0,0,0,.68-0.14,0.56,0.56,0,0,1-.05.74,12.24,12.24,0,0,0-3.17.61,0.24,0.24,0,0,1-.21-0.2,4.36,4.36,0,0,0,.05-0.62,0.18,0.18,0,0,0-.19-0.17A3.87,3.87,0,0,1,59,21c-1.42,0-2-.74-2-2.19V15.9c0-.91-0.1-1-0.51-1.11l-0.22-.07a0.47,0.47,0,0,1,.07-0.6A12.67,12.67,0,0,0,58,14c0.51-.09,1-0.29,1.08-0.29a0.25,0.25,0,0,1,.21.2c0,0.43-.05.89-0.05,1.51v2.82c0,0.82.12,1.54,1.21,1.54a1.37,1.37,0,0,0,.89-0.32,0.72,0.72,0,0,0,.19-0.51V15.68c0-.69-0.12-0.84-0.74-0.92l-0.24,0a0.42,0.42,0,0,1,.09-0.6c0.62,0,1.23-.11,1.78-0.17s1.11-.27,1.22-0.27a0.22,0.22,0,0,1,.17.2c0,0.31-.05.88-0.05,1.51V18.5Z" transform="translate(-0.78 -1.38)"/><path class="cls-1" d="M66.41,16.19c0-.68,0-0.89-0.33-1.09l-0.24-.16a0.41,0.41,0,0,1,0-.51,14,14,0,0,0,2.53-1,0.35,0.35,0,0,1,.31.15c0,0.24-.05.65-0.05,0.77s0,0.14.08,0.14A1.4,1.4,0,0,0,69,14.36a4.07,4.07,0,0,1,2-.68,2,2,0,0,1,1.54.65,0.64,0.64,0,0,0,.41.31,3.86,3.86,0,0,0,.55-0.29,3.76,3.76,0,0,1,2-.67,2,2,0,0,1,2.07,2.16v2.94c0,1.2.07,1.33,0.63,1.4l0.27,0a0.46,0.46,0,0,1,0,.6c-0.53,0-1.18-.05-2-0.05s-1.4,0-1.86.05a0.46,0.46,0,0,1,0-.6l0.27,0c0.43,0,.5-0.21.5-1.15V16.12a1.09,1.09,0,0,0-1.15-1.2,1.13,1.13,0,0,0-1,.43,0.94,0.94,0,0,0-.12.52V19c0,0.94.07,1.1,0.46,1.15l0.27,0a0.46,0.46,0,0,1,0,.6c-0.53,0-1.08-.05-1.85-0.05s-1.37,0-1.81.05a0.47,0.47,0,0,1,0-.6l0.28,0c0.39,0,.46-0.21.46-1.15V16.12a1.09,1.09,0,0,0-1.16-1.2,1.18,1.18,0,0,0-.92.41,1,1,0,0,0-.14.63V19c0,0.94.07,1.1,0.49,1.15l0.28,0a0.47,0.47,0,0,1,0,.6c-0.53,0-1.08-.05-1.9-0.05s-1.44,0-2,.05a0.45,0.45,0,0,1,0-.6l0.27,0c0.57-.07.63-0.21,0.63-1.4V16.19Z" transform="translate(-0.78 -1.38)"/><path class="cls-1" d="M80.21,16.19c0-.68,0-0.89-0.33-1.09l-0.24-.16a0.41,0.41,0,0,1,0-.51,12.71,12.71,0,0,0,2.53-1,0.34,0.34,0,0,1,.31.15c0,0.24-.05.65-0.05,0.77s0,0.14.09,0.14a1.43,1.43,0,0,0,.32-0.14,4.21,4.21,0,0,1,2-.68A2,2,0,0,1,87,15.83v2.94c0,1.2.07,1.33,0.68,1.4l0.28,0a0.47,0.47,0,0,1,0,.6c-0.53,0-1.25-.05-2.07-0.05s-1.35,0-1.85.05a0.47,0.47,0,0,1,0-.6l0.31-.05c0.39-.07.46-0.19,0.46-1.13V16.14a1.1,1.1,0,0,0-1.2-1.22,1.2,1.2,0,0,0-1,.41,1,1,0,0,0-.14.63V19c0,0.94.07,1.1,0.5,1.15l0.27,0a0.47,0.47,0,0,1,0,.6c-0.53,0-1.08-.05-1.9-0.05s-1.42,0-2,.05a0.46,0.46,0,0,1,0-.6l0.27,0c0.62-.07.68-0.21,0.68-1.4V16.19Z" transform="translate(-0.78 -1.38)"/><path class="cls-1" d="M91.85,18.78c0,1.2.07,1.35,0.63,1.4l0.33,0a0.47,0.47,0,0,1,0,.6c-0.6,0-1.27-.05-2.06-0.05s-1.49,0-2.05.05a0.46,0.46,0,0,1,0-.6l0.32,0c0.57,0,.63-0.21.63-1.4V16.19c0-.68,0-0.89-0.32-1.09l-0.24-.16a0.41,0.41,0,0,1,0-.51,13.13,13.13,0,0,0,2.53-1,0.35,0.35,0,0,1,.31.15c0,0.51-.05,1.27-0.05,2v3.15ZM92,11a1.22,1.22,0,0,1-1.28,1.25,1.14,1.14,0,0,1-1.2-1.21,1.24,1.24,0,0,1,1.28-1.25A1.16,1.16,0,0,1,92,11" transform="translate(-0.78 -1.38)"/></svg>